<?xml version="1.0" encoding="UTF-8"?>
<svg version="1.1" xmlns="http://www.w3.org/2000/svg" width="1536" height="1024">
<path d="M0 0 C506.88 0 1013.76 0 1536 0 C1536 337.92 1536 675.84 1536 1024 C1029.12 1024 522.24 1024 0 1024 C0 686.08 0 348.16 0 0 Z " fill="#01091B" transform="translate(0,0)"/>
<path d="M0 0 C0.85944243 -0.00623996 1.71888487 -0.01247993 2.60437101 -0.01890898 C5.46557133 -0.03478125 8.32591288 -0.0222575 11.18711853 -0.00964355 C13.24588516 -0.01506719 15.3046479 -0.02219121 17.36340332 -0.03088379 C22.94183123 -0.04909003 28.51996261 -0.04206094 34.09839559 -0.02936745 C39.94075766 -0.01922723 45.78309467 -0.02863584 51.62545776 -0.03491211 C61.43479462 -0.04218494 71.24401092 -0.0326097 81.05332947 -0.0135498 C92.3903424 0.00822422 103.72706764 0.00116213 115.06407362 -0.02085543 C124.80356687 -0.03901249 134.54297357 -0.0415664 144.28247827 -0.03110075 C150.097008 -0.02486833 155.91140253 -0.02402353 161.72592354 -0.0372467 C167.19173452 -0.04880915 172.65717481 -0.04077192 178.12294579 -0.01766968 C180.12763987 -0.01238501 182.1323652 -0.0138922 184.13704681 -0.02272034 C186.87588265 -0.03366871 189.61353431 -0.01992087 192.35229492 0 C193.53917336 -0.01338433 193.53917336 -0.01338433 194.75002915 -0.02703905 C200.30281786 0.05117805 203.52159388 1.35671519 208.11265564 4.50793457 C212.69546502 9.45254469 213.25951647 13.27551151 213.21031189 19.80090332 C213.20818947 20.85994621 213.20818947 20.85994621 213.20602417 21.94038391 C213.20043328 24.19211083 213.18788252 26.44373778 213.17515564 28.69543457 C213.17013946 30.22342792 213.16557676 31.75142284 213.16148376 33.27941895 C213.15046684 37.02229592 213.13320851 40.7650983 213.11265564 44.50793457 C212.28048523 44.91350586 211.44831482 45.31907715 210.59092712 45.73693848 C209.50368347 46.27238281 208.41643982 46.80782715 207.29624939 47.35949707 C206.21657898 47.88881836 205.13690857 48.41813965 204.02452087 48.96350098 C196.66303525 52.86798308 191.61662829 60.63989606 189.11265564 68.50793457 C188.28016218 78.06224905 188.24547131 86.98230374 193.11265564 95.50793457 C193.44007751 96.13828613 193.76749939 96.7686377 194.10484314 97.41809082 C198.280594 104.35227565 206.06283705 108.02380005 213.11265564 111.50793457 C213.18714815 115.9553287 213.24141821 120.40238647 213.27745056 124.85021973 C213.29248107 126.36135184 213.31291128 127.87244075 213.338974 129.38342285 C213.37561253 131.56305644 213.39243902 133.74211032 213.40562439 135.92199707 C213.42919006 137.88580322 213.42919006 137.88580322 213.45323181 139.88928223 C212.97650017 144.95459867 211.4359346 148.22041991 207.80015564 151.75793457 C202.27604172 155.35503201 197.00161197 155.80190764 190.54847717 155.78208923 C189.69961626 155.78732591 188.85075535 155.79256259 187.97617137 155.79795796 C185.13896837 155.81292944 182.30194617 155.81366248 179.46470642 155.81433105 C177.42756344 155.82195436 175.39042334 155.83038216 173.35328674 155.83955383 C167.82435003 155.86148658 162.29546862 155.87029591 156.76649332 155.87538028 C153.31133653 155.87902477 149.85619421 155.88526527 146.40104294 155.89238167 C134.34478367 155.91687024 122.28856741 155.92992715 110.23228455 155.93347168 C98.99755935 155.93710825 87.76310713 155.96701398 76.52846539 156.00887626 C66.87903282 156.04357025 57.22969078 156.05901995 47.58019626 156.05971771 C41.81863543 156.06051071 36.05735281 156.06926061 30.29585648 156.09771538 C24.87683169 156.12388104 19.45831614 156.12610933 14.03925705 156.11005974 C12.05270528 156.10824418 10.06612432 156.1149456 8.07963562 156.13087845 C5.36275621 156.15133771 2.64765889 156.14078858 -0.06919861 156.12266541 C-0.8511204 156.13586537 -1.6330422 156.14906534 -2.4386586 156.16266531 C-8.33627559 156.07310423 -12.29242603 154.17636457 -16.88734436 150.50793457 C-21.15978304 145.72735378 -21.4399273 141.93437756 -21.27796936 135.82824707 C-21.27230957 135.01548309 -21.26664978 134.20271912 -21.26081848 133.36532593 C-21.23855274 130.78724512 -21.18837751 128.21059026 -21.13734436 125.63293457 C-21.11726656 123.87774641 -21.09901803 122.12253631 -21.08265686 120.36730957 C-21.03872048 116.08030768 -20.96976347 111.7943623 -20.88734436 107.50793457 C-20.2162262 107.25688965 -19.54510803 107.00584473 -18.85365295 106.74719238 C-9.91219248 103.30679726 -3.64777052 99.3616083 0.42124939 90.40246582 C3.03965589 83.22773615 3.45632057 74.89915182 0.55015564 67.75793457 C-3.28237665 60.43766529 -7.34953422 55.84212607 -15.13734436 52.77355957 C-16.21500061 52.34333496 -17.29265686 51.91311035 -18.40296936 51.46984863 C-19.22281311 51.15241699 -20.04265686 50.83498535 -20.88734436 50.50793457 C-20.98663021 45.08196277 -21.05900903 39.65652616 -21.10707092 34.2298584 C-21.12711797 32.38601463 -21.15436316 30.54223389 -21.18910217 28.6986084 C-21.23792644 26.03983967 -21.26038208 23.38191542 -21.27796936 20.72277832 C-21.2986145 19.90582993 -21.31925964 19.08888153 -21.3405304 18.24717712 C-21.34265361 12.76364936 -20.56253379 8.7064211 -16.88734436 4.50793457 C-11.4877682 0.75526143 -6.44023497 -0.07283133 0 0 Z " fill="#B6317A" transform="translate(281.88734436035156,425.4920654296875)"/>
<path d="M0 0 C4.29184965 2.59721374 7.82169442 5.46508326 9.4375 10.3125 C10.0975 10.3125 10.7575 10.3125 11.4375 10.3125 C11.69789063 9.71695312 11.95828125 9.12140625 12.2265625 8.5078125 C13.51601588 6.17015831 14.77289622 4.88865425 16.8125 3.1875 C17.39773438 2.68992187 17.98296875 2.19234375 18.5859375 1.6796875 C24.72429953 -2.8528583 31.03564953 -2.20410512 38.4375 -1.6875 C44.85670412 -0.55006208 48.76252886 4.26062674 52.4375 9.3125 C54.41242904 12.57846868 54.68196048 15.0201163 54.66455078 18.81542969 C54.66439972 19.91626892 54.66424866 21.01710815 54.66409302 22.15130615 C54.65377045 23.33371887 54.64344788 24.51613159 54.6328125 25.734375 C54.6299826 26.94949768 54.62715271 28.16462036 54.62423706 29.41656494 C54.61303954 33.29864335 54.58793534 37.18049129 54.5625 41.0625 C54.55246966 43.69400709 54.54334391 46.32551779 54.53515625 48.95703125 C54.51310154 55.408943 54.47857425 61.86068242 54.4375 68.3125 C48.8275 68.3125 43.2175 68.3125 37.4375 68.3125 C37.4281543 66.88462158 37.41880859 65.45674316 37.40917969 63.9855957 C37.36927951 58.68319611 37.30351976 53.38137669 37.22998047 48.0793457 C37.20177118 45.78547626 37.18055647 43.49150962 37.16650391 41.19750977 C37.14507449 37.89809407 37.09842217 34.59984698 37.046875 31.30078125 C37.04564636 30.27664627 37.04441772 29.25251129 37.04315186 28.19734192 C36.95149491 23.73215547 36.89362478 21.05739902 34.52441406 17.18823242 C30.99625167 14.01709629 28.36304203 13.96847041 23.76171875 14.03515625 C20.10666013 14.4713061 18.10557538 15.83964964 15.4375 18.3125 C13.07804595 23.56261535 13.09517504 28.65568448 13.0234375 34.3046875 C13.00407135 35.25062775 12.9847052 36.19656799 12.9647522 37.1711731 C12.90522951 40.17652522 12.85868054 43.18191621 12.8125 46.1875 C12.77429508 48.23178704 12.73524189 50.27605842 12.6953125 52.3203125 C12.59955046 57.3175803 12.51541886 62.31492342 12.4375 67.3125 C6.8275 67.3125 1.2175 67.3125 -4.5625 67.3125 C-4.57708252 65.9807373 -4.59166504 64.64897461 -4.60668945 63.27685547 C-4.66478101 58.3229728 -4.74201373 53.36953949 -4.82495117 48.41601562 C-4.85814938 46.2744884 -4.88619714 44.13287476 -4.90893555 41.99121094 C-4.94257504 38.90782946 -4.99489654 35.82523631 -5.05078125 32.7421875 C-5.05717117 31.78883514 -5.0635611 30.83548279 -5.07014465 29.85324097 C-5.18531616 24.61383102 -5.61205681 20.83321597 -8.5625 16.3125 C-12.49836705 13.53329592 -16.92682992 13.6537046 -21.5625 14.3125 C-25.65565841 16.39628974 -27.86394232 18.07300904 -29.5625 22.3125 C-29.88515837 24.53023267 -29.88515837 24.53023267 -29.88134766 26.89746094 C-29.90121735 27.79809265 -29.92108704 28.69872437 -29.94155884 29.62664795 C-29.95888565 31.07216034 -29.95888565 31.07216034 -29.9765625 32.546875 C-29.99592865 33.54003723 -30.0152948 34.53319946 -30.0352478 35.55645752 C-30.09497322 38.72505129 -30.14140111 41.89368153 -30.1875 45.0625 C-30.22568623 47.21225533 -30.26473834 49.36199546 -30.3046875 51.51171875 C-30.40066912 56.77852227 -30.48472646 62.04539741 -30.5625 67.3125 C-36.1725 67.3125 -41.7825 67.3125 -47.5625 67.3125 C-47.5625 44.8725 -47.5625 22.4325 -47.5625 -0.6875 C-42.2825 -0.6875 -37.0025 -0.6875 -31.5625 -0.6875 C-31.2325 1.6225 -30.9025 3.9325 -30.5625 6.3125 C-29.89154297 5.69761719 -29.89154297 5.69761719 -29.20703125 5.0703125 C-28.60246094 4.53148437 -27.99789062 3.99265625 -27.375 3.4375 C-26.78332031 2.90382813 -26.19164062 2.37015625 -25.58203125 1.8203125 C-18.6896979 -3.32560756 -7.69589141 -3.62764347 0 0 Z " fill="#B52F7A" transform="translate(840.5625,483.6875)"/>
<path d="M0 0 C7.12039125 4.88523084 11.85534312 11.51958537 14.703125 19.61328125 C15.198125 22.58328125 15.198125 22.58328125 15.703125 25.61328125 C9.763125 25.61328125 3.823125 25.61328125 -2.296875 25.61328125 C-3.01875 24.21078125 -3.740625 22.80828125 -4.484375 21.36328125 C-7.22582398 16.45793575 -9.84220663 13.75498747 -14.984375 11.36328125 C-22.80574668 9.59240464 -29.01272898 10.05878723 -36.09765625 13.99609375 C-41.73298494 18.14001218 -43.74680646 23.98656901 -45.296875 30.61328125 C-45.58987453 33.72283443 -45.6308561 36.80386108 -45.609375 39.92578125 C-45.60446045 40.76592773 -45.5995459 41.60607422 -45.59448242 42.47167969 C-45.42441008 51.47591997 -43.95904091 60.03831647 -37.296875 66.61328125 C-32.09002397 70.69399938 -26.68211344 71.23723569 -20.203125 71 C-14.61324294 70.25618505 -10.84207335 68.24200383 -6.984375 64.17578125 C-5.22684901 61.69148992 -5.22684901 61.69148992 -4.234375 58.97265625 C-2.296875 56.61328125 -2.296875 56.61328125 -0.4621582 56.21069336 C1.84057239 56.12005094 4.08947719 56.17807854 6.390625 56.30078125 C7.58655273 56.33461914 7.58655273 56.33461914 8.80664062 56.36914062 C10.77293834 56.42801181 12.73826991 56.5176937 14.703125 56.61328125 C13.22506212 67.37887356 9.39214597 73.81660066 1.11328125 80.8515625 C-8.90022927 88.1710005 -20.32681648 88.57152833 -32.296875 87.61328125 C-42.30430306 85.65428 -50.60125419 79.47661809 -56.953125 71.625 C-65.67938246 58.56098084 -67.21778896 42.79185923 -64.9921875 27.52294922 C-63.43349972 19.98597809 -60.11756999 13.55452519 -55.296875 7.61328125 C-54.79542969 6.98808594 -54.29398438 6.36289062 -53.77734375 5.71875 C-39.92920874 -9.74668545 -16.80657757 -10.14682829 0 0 Z " fill="#D63A57" transform="translate(592.296875,465.38671875)"/>
<path d="M0 0 C6.6 0 13.2 0 20 0 C22.29560881 7.38939466 24.59080229 14.77891803 26.88528919 22.16866112 C27.95102355 25.60096347 29.01693124 29.03321179 30.08325195 32.46533203 C31.11462166 35.7849805 32.145514 39.10477688 33.17609215 42.42467117 C33.75564677 44.29122029 34.33568037 46.15762066 34.91572571 48.02401733 C35.62413051 50.30660551 36.33007191 52.5899602 37.03311157 54.87420654 C37.65498248 56.88461432 38.28636342 58.89211808 38.92953491 60.89581299 C39.20504181 61.76889099 39.48054871 62.64196899 39.7644043 63.54150391 C40.00466843 64.28832428 40.24493256 65.03514465 40.49247742 65.80459595 C41.06063128 68.26227436 41.0874029 70.48588435 41 73 C41.66 73 42.32 73 43 73 C43.12060791 71.83227051 43.24121582 70.66454102 43.36547852 69.46142578 C43.88247344 65.35219293 44.89596024 61.57098638 46.15234375 57.6171875 C46.47619049 56.58953529 46.47619049 56.58953529 46.80657959 55.54112244 C47.50986094 53.31678018 48.22335805 51.09587675 48.9375 48.875 C49.42915982 47.32913702 49.92044754 45.78315564 50.41137695 44.23706055 C55.12409366 29.4417095 60.03161119 14.71117295 65 0 C71.27 0 77.54 0 84 0 C81.81191128 8.39208847 79.19756374 16.55696059 76.359375 24.75 C75.90935759 26.05631061 75.45959518 27.3627091 75.0100708 28.66918945 C74.07092196 31.3962715 73.1294147 34.1225232 72.18603516 36.84814453 C70.99791432 40.28115498 69.81464837 43.71581328 68.63297272 47.15104675 C63.58258882 61.82855796 58.43739481 76.46022604 53 91 C45.74 91 38.48 91 31 91 C26.30420414 78.69154122 21.96943302 66.29122291 17.75 53.8125 C16.43206468 49.92541612 15.11257009 46.03886231 13.79296875 42.15234375 C13.46948959 41.19886047 13.14601044 40.2453772 12.81272888 39.26300049 C10.82850145 33.41969248 8.82593183 27.58315369 6.80078125 21.75390625 C6.56223419 21.06659927 6.32368713 20.3792923 6.07791138 19.67115784 C4.98722008 16.53041734 3.8929811 13.39100982 2.79394531 10.25317383 C2.41979492 9.17704834 2.04564453 8.10092285 1.66015625 6.9921875 C1.33668213 6.06776855 1.01320801 5.14334961 0.67993164 4.19091797 C0 2 0 2 0 0 Z " fill="#9227A4" transform="translate(967,460)"/>
<path d="M0 0 C5.41720547 0.85534823 9.08058323 3.37125426 13.609375 6.359375 C14.52533447 6.94557617 15.44129395 7.53177734 16.38500977 8.13574219 C18.28490175 9.35253612 20.18080243 10.57558351 22.07275391 11.8046875 C25.49801555 14.02297505 28.95203725 16.1931106 32.40942383 18.36083984 C36.23541733 20.76230708 40.04683614 23.18662863 43.859375 25.609375 C44.56868164 26.05893555 45.27798828 26.50849609 46.00878906 26.97167969 C47.98171462 28.22296157 49.95225113 29.47790416 51.921875 30.734375 C53.02660156 31.43820312 54.13132812 32.14203125 55.26953125 32.8671875 C59.70411624 35.85033215 59.70411624 35.85033215 60.421875 39.359375 C59.60371412 44.08652677 56.56433859 45.91025037 52.859375 48.609375 C48.72465389 51.25743433 44.48676684 53.71930557 40.234375 56.171875 C37.81805934 57.57688514 35.4046581 58.98683703 32.9921875 60.3984375 C32.3899939 60.75016525 31.78780029 61.10189301 31.1673584 61.46427917 C27.28608644 63.74134406 23.46171569 66.09269799 19.6640625 68.5078125 C18.72127441 69.10650146 17.77848633 69.70519043 16.80712891 70.32202148 C15.05565239 71.44185692 13.31012404 72.57107105 11.57177734 73.71118164 C7.06371992 76.58376421 3.38629637 78.77625065 -2.140625 78.609375 C-4.80332947 77.02929688 -4.80332947 77.02929688 -7.140625 74.609375 C-7.76881409 71.49780273 -7.76881409 71.49780273 -7.77172852 67.79296875 C-7.77888382 67.11605988 -7.78603912 66.439151 -7.79341125 65.74172974 C-7.81028798 63.50941996 -7.79090552 61.27912169 -7.76953125 59.046875 C-7.77036006 57.49275547 -7.77281991 55.93863603 -7.77684021 54.38452148 C-7.77969746 51.12945122 -7.7650053 47.87506933 -7.73754883 44.62011719 C-7.70346514 40.45010478 -7.70948435 36.28132316 -7.7282114 32.11125183 C-7.7387859 28.9026872 -7.7298397 25.69440842 -7.71482658 22.48587036 C-7.70964754 20.94850514 -7.71012323 19.41111003 -7.71637154 17.87374878 C-7.72182961 15.72377466 -7.70143419 13.57555531 -7.67407227 11.42578125 C-7.66787369 10.20318604 -7.66167511 8.98059082 -7.6552887 7.72094727 C-6.84998827 2.85223302 -4.78859125 0.92912965 0 0 Z " fill="#FEFDFE" transform="translate(351.140625,464.390625)"/>
<path d="M0 0 C6.33439138 3.96179249 10.24662381 8.69087102 12.125 15.9375 C12.39783897 19.92589453 12.35759299 23.90236886 12.3203125 27.8984375 C12.3174826 29.04414215 12.31465271 30.1898468 12.31173706 31.37026978 C12.30057135 35.01778755 12.27547299 38.66505685 12.25 42.3125 C12.23996555 44.79036103 12.23084051 47.26822592 12.22265625 49.74609375 C12.20064376 55.80999109 12.16613838 61.87370346 12.125 67.9375 C7.505 67.9375 2.885 67.9375 -1.875 67.9375 C-2.865 65.2975 -3.855 62.6575 -4.875 59.9375 C-5.39449219 60.41960938 -5.91398438 60.90171875 -6.44921875 61.3984375 C-7.49529297 62.34589844 -7.49529297 62.34589844 -8.5625 63.3125 C-9.24699219 63.93898438 -9.93148437 64.56546875 -10.63671875 65.2109375 C-16.78611683 69.95445225 -23.42794482 69.48813075 -30.875 68.9375 C-37.95326531 67.7636005 -41.74476543 63.57616807 -45.875 57.9375 C-48.37621865 52.9350627 -47.71269942 44.91486539 -46.2265625 39.6328125 C-43.65875622 34.6947235 -39.22752778 30.99732863 -33.94042969 29.32592773 C-27.76186962 27.97554559 -21.61135405 27.32107723 -15.3125 26.8125 C-13.79946289 26.68294922 -13.79946289 26.68294922 -12.25585938 26.55078125 C-9.79597635 26.34093341 -7.33577098 26.13661533 -4.875 25.9375 C-5.15892831 24.31349765 -5.45402132 22.69144419 -5.75390625 21.0703125 C-5.91705322 20.16684082 -6.0802002 19.26336914 -6.24829102 18.33251953 C-6.7183316 15.77873182 -6.7183316 15.77873182 -8.8125 13.8125 C-13.52806328 12.46519621 -18.01667206 12.25908484 -22.875 12.9375 C-25.87697464 14.73868478 -27.32666366 15.84082732 -28.875 18.9375 C-34.155 18.9375 -39.435 18.9375 -44.875 18.9375 C-43.69638917 10.68722417 -42.0004994 7.14925242 -35.51171875 2.09765625 C-25.5537502 -3.88839274 -10.70318706 -4.86508503 0 0 Z " fill="#A22A90" transform="translate(951.875,484.0625)"/>
<path d="M0 0 C1.25623169 0.01027222 1.25623169 0.01027222 2.5378418 0.02075195 C8.59307776 0.17856045 13.49372343 0.9088959 18.5625 4.4375 C19.43068359 5.01564453 19.43068359 5.01564453 20.31640625 5.60546875 C24.07196693 8.40177779 25.93568495 11.0999131 27.5625 15.4375 C27.96929183 19.57357796 27.91136813 23.68345856 27.85546875 27.8359375 C27.85122391 29.02603424 27.84697906 30.21613098 27.84260559 31.44229126 C27.82585169 35.23259375 27.78820416 39.02235898 27.75 42.8125 C27.73494897 45.38671106 27.7212613 47.96093047 27.70898438 50.53515625 C27.6759587 56.8361436 27.6241978 63.13673079 27.5625 69.4375 C22.9425 69.4375 18.3225 69.4375 13.5625 69.4375 C12.9025 66.7975 12.2425 64.1575 11.5625 61.4375 C10.6034375 62.79875 10.6034375 62.79875 9.625 64.1875 C5.49383991 69.04362691 0.70144468 71.0171407 -5.55859375 71.85546875 C-13.25475237 72.1908726 -19.09955762 70.89481978 -25.4375 66.4375 C-29.91658114 61.95841886 -31.72318664 57.30113862 -31.75 51 C-31.61786537 45.52375363 -30.76293153 41.99610488 -26.99609375 37.8515625 C-19.511168 30.73133151 -10.31390394 29.9334956 -0.375 29.25 C1.20958008 29.1272168 1.20958008 29.1272168 2.82617188 29.00195312 C5.40436282 28.80363074 7.98285391 28.6157045 10.5625 28.4375 C10.47503716 26.99888706 10.36684652 25.56152492 10.25 24.125 C10.19199219 23.32449219 10.13398437 22.52398437 10.07421875 21.69921875 C9.47185468 19.03686152 8.66608809 18.12556452 6.5625 16.4375 C2.6274579 14.46997895 -2.1480522 14.97327405 -6.4375 15.4375 C-9.43947464 17.23868478 -10.88916366 18.34082732 -12.4375 21.4375 C-17.7175 21.4375 -22.9975 21.4375 -28.4375 21.4375 C-27.34951856 13.82162992 -26.03937097 10.98023754 -20.6875 5.75 C-14.05682597 1.0320204 -7.94428413 -0.09959237 0 0 Z " fill="#8627B5" transform="translate(1079.4375,481.5625)"/>
<path d="M0 0 C4.58139133 3.14426287 8.28918768 7.11365678 10.0546875 12.41015625 C10.14268221 14.17423753 10.17233007 15.94149391 10.16821289 17.70776367 C10.16813736 18.78865768 10.16806183 19.8695517 10.16798401 20.98320007 C10.16282272 22.1489003 10.15766144 23.31460052 10.15234375 24.515625 C10.1509288 25.70996658 10.14951385 26.90430817 10.14805603 28.13484192 C10.142451 31.95580533 10.12989761 35.7767105 10.1171875 39.59765625 C10.11217315 42.18554603 10.10761013 44.77343673 10.10351562 47.36132812 C10.09247992 53.71096 10.07521187 60.06054824 10.0546875 66.41015625 C5.4346875 66.41015625 0.8146875 66.41015625 -3.9453125 66.41015625 C-3.9453125 63.44015625 -3.9453125 60.47015625 -3.9453125 57.41015625 C-4.6053125 57.41015625 -5.2653125 57.41015625 -5.9453125 57.41015625 C-6.1515625 57.96703125 -6.3578125 58.52390625 -6.5703125 59.09765625 C-9.76965461 64.47836798 -14.08591309 66.79451303 -19.9453125 68.41015625 C-28.54757768 69.44723137 -35.8775012 68.67482016 -42.9453125 63.41015625 C-48.015179 58.16465927 -49.32738676 52.86028435 -49.22265625 45.78515625 C-48.59180939 40.38297472 -46.05196474 36.10905823 -42.0078125 32.53515625 C-37.56824177 29.45463778 -33.68616564 28.2034175 -28.34765625 27.55859375 C-27.29900391 27.4296875 -26.25035156 27.30078125 -25.16992188 27.16796875 C-24.08517578 27.04164063 -23.00042969 26.9153125 -21.8828125 26.78515625 C-20.24989258 26.5840625 -20.24989258 26.5840625 -18.58398438 26.37890625 C-14.32789891 25.86555686 -10.23785146 25.41015625 -5.9453125 25.41015625 C-6.17288104 20.93464157 -6.42797425 18.26644025 -8.7578125 14.41015625 C-13.63741473 11.34844505 -18.33858839 11.54937288 -23.9453125 12.41015625 C-27.01897036 14.21819029 -28.37550982 15.27055089 -29.9453125 18.41015625 C-35.2253125 18.41015625 -40.5053125 18.41015625 -45.9453125 18.41015625 C-44.6772749 9.53389308 -42.08471538 5.95831681 -35.23828125 0.70703125 C-25.7217617 -4.67539548 -9.81588298 -4.73811653 0 0 Z " fill="#7028D3" transform="translate(1165.9453125,484.58984375)"/>
<path d="M0 0 C1.11930908 0.00966797 1.11930908 0.00966797 2.26123047 0.01953125 C10.75476428 0.29963911 16.64568155 3.0593666 22.5625 9.1875 C29.94716825 18.40091864 30.6875 28.00779303 30.6875 39.5 C15.5075 39.5 0.3275 39.5 -15.3125 39.5 C-14.04775747 48.46858968 -14.04775747 48.46858968 -9.3125 54.5 C-5.98731704 56.58653388 -3.26772413 56.79777343 0.625 56.8125 C1.64464844 56.82925781 2.66429687 56.84601562 3.71484375 56.86328125 C7.12044454 56.44709088 8.94725692 55.53492834 11.6875 53.5 C12.3475 52.51 13.0075 51.52 13.6875 50.5 C16.4760289 50.27892213 19.03403181 50.21892465 21.8125 50.3125 C22.94365234 50.33280273 22.94365234 50.33280273 24.09765625 50.35351562 C25.96124127 50.38890015 27.82445978 50.44270833 29.6875 50.5 C27.30569023 59.21393819 24.30468673 64.25800533 16.4375 68.875 C7.38265962 73.12294981 -3.52233443 73.26216322 -12.9375 69.875 C-21.3405882 65.79472288 -26.90342004 59.69201274 -30.28515625 51 C-33.93917393 39.30714344 -33.31551774 27.89261975 -28.05859375 16.87109375 C-22.06670949 5.91590483 -12.50385542 -0.11308031 0 0 Z " fill="#5F2DEE" transform="translate(1248.3125,481.5)"/>
<path d="M0 0 C5.19598955 3.01339231 8.51956332 6.2335158 11.375 11.5 C11.78492188 12.22832031 12.19484375 12.95664062 12.6171875 13.70703125 C16.50058573 21.78182136 15.375 26.59310887 15.375 36.5 C0.195 36.5 -14.985 36.5 -30.625 36.5 C-29.06163537 45.71884168 -29.06163537 45.71884168 -23.39453125 52.109375 C-20.22374529 53.70147627 -18.15427851 53.90200978 -14.625 53.875 C-13.614375 53.88273438 -12.60375 53.89046875 -11.5625 53.8984375 C-8.19866931 53.44217323 -6.34149794 52.5090766 -3.625 50.5 C-2.965 49.51 -2.305 48.52 -1.625 47.5 C1.1635289 47.27892213 3.72153181 47.21892465 6.5 47.3125 C7.63115234 47.33280273 7.63115234 47.33280273 8.78515625 47.35351562 C10.64874127 47.38890015 12.51195978 47.44270833 14.375 47.5 C13.33296372 54.85555019 10.14334775 59.55803693 4.3984375 64.17578125 C-3.58445252 69.40010503 -13.41170526 69.41020475 -22.625 68.5 C-25.97118549 67.6044741 -28.68640282 66.31343166 -31.625 64.5 C-32.24761719 64.16097656 -32.87023437 63.82195312 -33.51171875 63.47265625 C-38.99137361 60.13256294 -41.78493659 55.12737023 -44.625 49.5 C-45.00269531 48.79230469 -45.38039063 48.08460938 -45.76953125 47.35546875 C-47.11094091 42.87797805 -46.99377284 38.46107643 -47 33.8125 C-47.02449219 32.86955078 -47.04898438 31.92660156 -47.07421875 30.95507812 C-47.11927342 20.02931983 -43.48034493 12.49150944 -36.0078125 4.63671875 C-26.40518907 -3.97415833 -11.55364157 -5.34917659 0 0 Z " fill="#CD3664" transform="translate(766.625,484.5)"/>
<path d="M0 0 C6.29519193 3.87607888 10.67176123 9.36715741 12.5 16.5 C12.77035899 20.41574935 12.73265348 24.31876142 12.6953125 28.2421875 C12.6924826 29.36569611 12.68965271 30.48920471 12.68673706 31.64675903 C12.67557303 35.22294927 12.65047501 38.7988859 12.625 42.375 C12.61496533 44.80468387 12.60584033 47.23437169 12.59765625 49.6640625 C12.575646 55.6094722 12.5411418 61.55469315 12.5 67.5 C6.89 67.5 1.28 67.5 -4.5 67.5 C-4.51981934 66.1682373 -4.53963867 64.83647461 -4.56005859 63.46435547 C-4.6362866 58.51055397 -4.72497763 53.5570396 -4.81738281 48.60351562 C-4.85560153 46.46197184 -4.89046668 44.32036543 -4.921875 42.17871094 C-4.96767979 39.09547583 -5.02564917 36.01266929 -5.0859375 32.9296875 C-5.09748871 31.97633514 -5.10903992 31.02298279 -5.12094116 30.04074097 C-5.22767805 25.20349897 -5.4183692 20.96703811 -7.5 16.5 C-13.17413103 13.45534432 -19.79196853 13.95839371 -25.9375 15.1875 C-28.68317197 16.28785133 -28.68317197 16.28785133 -29.8125 18.9375 C-30.1528125 20.2059375 -30.1528125 20.2059375 -30.5 21.5 C-30.83 22.49 -31.16 23.48 -31.5 24.5 C-31.61322825 25.9264314 -31.67595476 27.3572249 -31.70532227 28.7878418 C-31.72526749 29.64850754 -31.74521271 30.50917328 -31.76576233 31.3959198 C-31.79083107 32.78355278 -31.79083107 32.78355278 -31.81640625 34.19921875 C-31.83718735 35.14940384 -31.85796844 36.09958893 -31.87937927 37.0785675 C-31.94478052 40.11480456 -32.00371604 43.15112831 -32.0625 46.1875 C-32.10569417 48.24545169 -32.14930876 50.30339459 -32.19335938 52.36132812 C-32.30045231 57.40746316 -32.40174646 62.45368543 -32.5 67.5 C-37.78 67.5 -43.06 67.5 -48.5 67.5 C-48.5 45.06 -48.5 22.62 -48.5 -0.5 C-43.22 -0.5 -37.94 -0.5 -32.5 -0.5 C-32.17 1.81 -31.84 4.12 -31.5 6.5 C-30.82904297 5.88511719 -30.82904297 5.88511719 -30.14453125 5.2578125 C-29.53996094 4.71898437 -28.93539062 4.18015625 -28.3125 3.625 C-27.72082031 3.09132813 -27.12914062 2.55765625 -26.51953125 2.0078125 C-19.64822672 -3.12240713 -7.79343746 -3.46034748 0 0 Z " fill="#D43959" transform="translate(697.5,483.5)"/>
<path d="M0 0 C5.61 0 11.22 0 17 0 C17 31.35 17 62.7 17 95 C11.39 95 5.78 95 0 95 C0 63.65 0 32.3 0 0 Z " fill="#632AE7" transform="translate(1190,456)"/>
<path d="M0 0 C5.61 0 11.22 0 17 0 C17 22.44 17 44.88 17 68 C11.39 68 5.78 68 0 68 C0 45.56 0 23.12 0 0 Z " fill="#D93B57" transform="translate(618,483)"/>
<path d="M0 0 C1.16184311 -0.00058411 2.32368622 -0.00116821 3.52073669 -0.00177002 C7.34095683 0.00100501 11.16038578 0.03207136 14.98046875 0.06347656 C17.6370577 0.07094102 20.29360348 0.07682985 22.95019531 0.08062744 C29.21514856 0.09302445 35.47982023 0.12580108 41.74464989 0.1660254 C48.88129818 0.21084571 56.01796042 0.23275582 63.15471458 0.25280714 C77.82594408 0.29453708 92.49695247 0.3648248 107.16796875 0.45410156 C107.16796875 0.78410156 107.16796875 1.11410156 107.16796875 1.45410156 C75.34157268 2.84097222 43.63023036 3.6835291 11.77563477 3.46777344 C10.60636948 3.46112167 9.43710419 3.45446991 8.23240662 3.44761658 C6.03979378 3.43404178 3.84720353 3.41570692 1.65467834 3.39186096 C0.69242844 3.38541061 -0.26982147 3.37896027 -1.26123047 3.37231445 C-2.52010574 3.35993492 -2.52010574 3.35993492 -3.80441284 3.3473053 C-5.90151489 3.32236439 -5.90151489 3.32236439 -7.83203125 4.45410156 C-7.83203125 3.79410156 -7.83203125 3.13410156 -7.83203125 2.45410156 C-9.25464609 2.82799392 -10.67004267 3.22939199 -12.08203125 3.64160156 C-12.8709375 3.86203125 -13.65984375 4.08246094 -14.47265625 4.30957031 C-17.69593011 5.87317833 -18.90428635 7.41710675 -20.83203125 10.45410156 C-21.42423019 13.38729753 -21.43685165 16.26924603 -21.44140625 19.25488281 C-21.4579425 20.09125778 -21.47447876 20.92763275 -21.49151611 21.78935242 C-21.53992065 24.44851072 -21.56134969 27.10709748 -21.58203125 29.76660156 C-21.61019734 31.57457291 -21.64012566 33.38251772 -21.671875 35.19042969 C-21.7456773 39.61160657 -21.79529777 44.03246759 -21.83203125 48.45410156 C-20.56875 48.73253906 -19.30546875 49.01097656 -18.00390625 49.29785156 C-13.71108742 50.24402388 -11.78131837 52.17711588 -8.83203125 55.45410156 C-7.81109375 55.88722656 -7.81109375 55.88722656 -6.76953125 56.32910156 C-3.51314381 58.21990717 -2.47368286 61.11216792 -0.83203125 64.45410156 C-0.83203125 65.44410156 -0.83203125 66.43410156 -0.83203125 67.45410156 C-0.17203125 67.45410156 0.48796875 67.45410156 1.16796875 67.45410156 C1.16796875 68.11410156 1.16796875 68.77410156 1.16796875 69.45410156 C1.82796875 70.11410156 2.48796875 70.77410156 3.16796875 71.45410156 C3.3984375 73.87988281 3.3984375 73.87988281 3.35546875 76.76660156 C3.34902344 77.71148437 3.34257812 78.65636719 3.3359375 79.62988281 C2.82454027 88.22849197 0.05647012 95.16468095 -5.83203125 101.45410156 C-10.77032651 105.53043983 -15.57700001 108.12324385 -21.83203125 109.45410156 C-21.83203125 110.21722656 -21.83203125 110.98035156 -21.83203125 111.76660156 C-21.83203125 115.44001829 -21.84261776 119.11280186 -21.8671875 122.78613281 C-21.87650425 124.9462882 -21.88561025 127.1064445 -21.89453125 129.26660156 C-21.90291016 130.34748047 -21.91128906 131.42835938 -21.91992188 132.54199219 C-21.92314453 133.59193359 -21.92636719 134.641875 -21.9296875 135.72363281 C-21.93492432 136.67858643 -21.94016113 137.63354004 -21.94555664 138.61743164 C-21.8248812 141.63276052 -21.38612155 144.49027995 -20.83203125 147.45410156 C-19.84203125 147.78410156 -18.85203125 148.11410156 -17.83203125 148.45410156 C-17.44015625 148.92847656 -17.04828125 149.40285156 -16.64453125 149.89160156 C-13.76218158 152.37638576 -10.52190467 152.6677351 -6.83203125 153.45410156 C-6.83203125 153.78410156 -6.83203125 154.11410156 -6.83203125 154.45410156 C-12.55246808 154.91173651 -15.43086968 154.170638 -19.83203125 150.45410156 C-23.94514222 145.47187886 -24.38649189 141.95133731 -24.22265625 135.77441406 C-24.21699646 134.96165009 -24.21133667 134.14888611 -24.20550537 133.31149292 C-24.18323963 130.73341211 -24.1330644 128.15675725 -24.08203125 125.57910156 C-24.06195345 123.8239134 -24.04370492 122.0687033 -24.02734375 120.31347656 C-23.98340737 116.02647468 -23.91445036 111.74052929 -23.83203125 107.45410156 C-23.16091309 107.20305664 -22.48979492 106.95201172 -21.79833984 106.69335938 C-12.85687937 103.25296425 -6.59245741 99.3077753 -2.5234375 90.34863281 C0.094969 83.17390314 0.51163368 74.84531881 -2.39453125 67.70410156 C-6.22706354 60.38383228 -10.29422111 55.78829306 -18.08203125 52.71972656 C-19.1596875 52.28950195 -20.23734375 51.85927734 -21.34765625 51.41601562 C-22.1675 51.09858398 -22.98734375 50.78115234 -23.83203125 50.45410156 C-23.9313171 45.02812976 -24.00369592 39.60269315 -24.05175781 34.17602539 C-24.07180486 32.33218162 -24.09905005 30.48840088 -24.13378906 28.64477539 C-24.18261333 25.98600666 -24.20506897 23.32808241 -24.22265625 20.66894531 C-24.24330139 19.85199692 -24.26394653 19.03504852 -24.28521729 18.19334412 C-24.287346 12.69561526 -23.49456924 8.67316961 -19.83203125 4.45410156 C-13.70249178 -0.09312142 -7.36639849 -0.09773 0 0 Z " fill="#F65C46" transform="translate(284.83203125,425.5458984375)"/>
<path d="M0 0 C4.82240211 2.36570669 7.52642771 5.24313021 10 10 C10 11.98 10 13.96 10 16 C0.43 16 -9.14 16 -19 16 C-17.98555458 8.89888209 -17.57349848 6.26712962 -12.375 1.6875 C-8.05674474 -0.47162763 -4.73979927 -0.83393237 0 0 Z " fill="#050B19" transform="translate(756,495)"/>
<path d="M0 0 C2.75 1.25 2.75 1.25 5 3 C5.721875 3.53625 6.44375 4.0725 7.1875 4.625 C9 7 9 7 11 16 C1.1 16 -8.8 16 -19 16 C-17.8707027 9.22421617 -16.40431018 6.0764497 -11.25 1.625 C-6.96224232 -0.51887884 -4.76434281 -0.52937142 0 0 Z " fill="#020A19" transform="translate(1252,495)"/>
<path d="M0 0 C-0.02864368 6.31593147 -1.12573524 10.01587342 -5.4296875 14.6875 C-9.11250248 17.76567371 -13.76181595 17.39425551 -18.3203125 17.33984375 C-21 17 -21 17 -24.25 14.9375 C-26 12 -26 12 -26.0625 8.375 C-25 5 -25 5 -23.5 3.1875 C-15.97686949 -0.38598699 -8.18115788 -0.24917232 0 0 Z " fill="#040A1A" transform="translate(1160,522)"/>
<path d="M0 0 C-1.62125749 10.98615269 -1.62125749 10.98615269 -6 15 C-10.35742537 18.04006421 -13.75934003 18.44584947 -18.87109375 17.6328125 C-22.41410535 16.57966043 -24.00349557 15.06130679 -26 12 C-26.1875 8.4375 -26.1875 8.4375 -25 5 C-18.29346551 -1.37120777 -8.65604344 -0.16263965 0 0 Z " fill="#040B1A" transform="translate(1091,522)"/>
<path d="M0 0 C-0.02814553 6.20608868 -0.99351676 10.12888469 -5.40234375 14.62109375 C-9.04410606 17.76422846 -11.87884835 18.16581497 -16.5625 17.875 C-19.53117333 17.43959458 -20.98149968 17.01173191 -23.5625 15.375 C-25.59145852 12.02280766 -25.54964081 9.84748569 -25 6 C-23.34697688 3.0875307 -21.8232818 2.23813936 -18.63671875 1.31640625 C-12.40929178 0.03921119 -6.33931925 -0.24752223 0 0 Z " fill="#050B18" transform="translate(947,522)"/>
<path d="M0 0 C3.43113458 1.21749937 6.5253756 2.80526518 9.69140625 4.58203125 C10.90292358 5.26036011 10.90292358 5.26036011 12.13891602 5.95239258 C12.75307373 6.29810303 13.36723145 6.64381348 14 7 C14.07449251 11.44739413 14.12876257 15.8944519 14.16479492 20.34228516 C14.17982543 21.85341727 14.20025564 23.36450618 14.22631836 24.87548828 C14.26295689 27.05512187 14.27978338 29.23417575 14.29296875 31.4140625 C14.31653442 33.37786865 14.31653442 33.37786865 14.34057617 35.38134766 C13.85034354 40.59011334 12.31194919 43.81604586 8.4375 47.3125 C4.94932119 49.72739302 3.21625047 50.12446518 -0.98599243 50.12025452 C-2.04051102 50.12162918 -3.0950296 50.12300385 -4.1815033 50.12442017 C-5.34315506 50.12082489 -6.50480682 50.11722961 -7.70166016 50.11352539 C-8.92114853 50.11367142 -10.1406369 50.11381744 -11.39707947 50.1139679 C-14.74605181 50.11338955 -18.09496293 50.10836546 -21.44392443 50.10139394 C-24.9419744 50.09515348 -28.44002515 50.09455605 -31.93807983 50.09336853 C-38.56434861 50.09025726 -45.19060094 50.08204662 -51.81686246 50.07201904 C-59.35968929 50.06085157 -66.9025169 50.05534585 -74.44534993 50.05032361 C-89.96357616 50.03986384 -105.48178596 50.02226834 -121 50 C-121 49.67 -121 49.34 -121 49 C-103.52231519 48.22223284 -86.05550895 47.87848316 -68.5625 47.71875 C-67.53065582 47.70920288 -66.49881165 47.69965576 -65.43569946 47.68981934 C-56.85429889 47.61160464 -48.27283534 47.54153371 -39.69134521 47.47393799 C-33.22833906 47.4229471 -26.7653875 47.36825944 -20.30245972 47.30812073 C-17.30395136 47.28172493 -14.30543682 47.26084164 -11.30688477 47.2401123 C-9.48062881 47.22352053 -7.65437536 47.20664969 -5.828125 47.18945312 C-4.59094978 47.1831765 -4.59094978 47.1831765 -3.32878113 47.17677307 C0.57595788 47.13414655 4.18665776 46.95548594 8 46 C8.185625 45.13375 8.185625 45.13375 8.375 44.25 C9.00643364 41.97683888 9.94857553 40.10284895 11 38 C11 37.34 11 36.68 11 36 C11.66 36 12.32 36 13 36 C12.83628906 35.06027344 12.67257812 34.12054687 12.50390625 33.15234375 C11.80980351 28.2936246 11.89165691 23.46065789 11.9375 18.5625 C11.94201172 17.64017578 11.94652344 16.71785156 11.95117188 15.76757812 C11.96286062 13.51164952 11.97924545 11.25586033 12 9 C11.23042969 8.8865625 10.46085938 8.773125 9.66796875 8.65625 C6.03056124 7.76154361 4.50219534 5.70507605 2 3 C1.01 2.505 1.01 2.505 0 2 C0 1.34 0 0.68 0 0 Z " fill="#9223BE" transform="translate(481,530)"/>
<path d="M0 0 C2.87029869 1.79393668 4.49131638 2.98263276 6 6 C6.43023798 9.87214182 6.31669086 11.52496371 4.125 14.8125 C1.22424254 17.79857385 0.43881175 17.95683819 -3.8125 18.375 C-7.23041924 18.31907041 -7.97465048 18.0177986 -10.9375 15.9375 C-13.44488346 12.3663781 -14.15331912 10.36959504 -14 6 C-10.62864497 -0.18081756 -6.87197567 -1.49390775 0 0 Z " fill="#DB3E50" transform="translate(630,457)"/>
<path d="M0 0 C5.28 0 10.56 0 16 0 C16 2.64 16 5.28 16 8 C15.67 8 15.34 8 15 8 C15 5.69 15 3.38 15 1 C13.54119891 1.14107747 12.08296449 1.28802415 10.625 1.4375 C9.81289063 1.51871094 9.00078125 1.59992188 8.1640625 1.68359375 C5.95727195 1.89090114 5.95727195 1.89090114 4 3 C2.93290958 6.20127126 2.84326797 8.57357623 2.79467773 11.94018555 C2.77473251 13.16122482 2.75478729 14.3822641 2.73423767 15.64030457 C2.71752518 16.95912125 2.70081268 18.27793793 2.68359375 19.63671875 C2.6630174 21.00007244 2.64202075 22.36341985 2.62062073 23.72676086 C2.5654703 27.31221422 2.51603013 30.89772448 2.46777344 34.48327637 C2.41750701 38.1431992 2.36184781 41.80303957 2.30664062 45.46289062 C2.19914503 52.64185915 2.09817955 59.82089692 2 67 C6.29 67 10.58 67 15 67 C14.98952637 65.78940918 14.97905273 64.57881836 14.96826172 63.33154297 C14.93196657 58.82522558 14.9090649 54.31892104 14.89013672 49.8125 C14.88010081 47.86488672 14.86646912 45.91728843 14.84912109 43.96972656 C14.82476672 41.16467583 14.81349263 38.35982495 14.8046875 35.5546875 C14.79436493 34.68883026 14.78404236 33.82297302 14.77340698 32.93087769 C14.77253789 28.21097121 15.17527754 24.43868475 17 20 C17.95771136 22.87313408 18.09652642 24.50445206 18.02172852 27.47143555 C17.99158409 28.82249641 17.99158409 28.82249641 17.96083069 30.20085144 C17.92027809 31.65410576 17.92027809 31.65410576 17.87890625 33.13671875 C17.85529526 34.13129593 17.83168427 35.12587311 17.80735779 36.15058899 C17.73073623 39.32970506 17.64670512 42.50857663 17.5625 45.6875 C17.50927782 47.84178488 17.45653743 49.99608172 17.40429688 52.15039062 C17.27512303 57.43374882 17.13930328 62.71689957 17 68 C11.39 68 5.78 68 0 68 C0 45.56 0 23.12 0 0 Z " fill="#CF347A" transform="translate(793,483)"/>
<path d="M0 0 C0.33 0.99 0.66 1.98 1 3 C1.66 3 2.32 3 3 3 C3 3.66 3 4.32 3 5 C3.66 5.66 4.32 6.32 5 7 C5.23046875 9.42578125 5.23046875 9.42578125 5.1875 12.3125 C5.18105469 13.25738281 5.17460937 14.20226562 5.16796875 15.17578125 C4.65657152 23.77439041 1.88850137 30.71057939 -4 37 C-8.93829526 41.07633827 -13.74496876 43.66914229 -20 45 C-20 45.763125 -20 46.52625 -20 47.3125 C-20 50.98591673 -20.01058651 54.6587003 -20.03515625 58.33203125 C-20.044473 60.49218664 -20.053579 62.65234294 -20.0625 64.8125 C-20.07087891 65.89337891 -20.07925781 66.97425781 -20.08789062 68.08789062 C-20.09111328 69.13783203 -20.09433594 70.18777344 -20.09765625 71.26953125 C-20.10289307 72.22448486 -20.10812988 73.17943848 -20.11352539 74.16333008 C-19.99284995 77.17865896 -19.5540903 80.03617839 -19 83 C-18.01 83.33 -17.02 83.66 -16 84 C-15.608125 84.474375 -15.21625 84.94875 -14.8125 85.4375 C-11.93015033 87.9222842 -8.68987342 88.21363353 -5 89 C-5 89.33 -5 89.66 -5 90 C-10.72043683 90.45763495 -13.59883843 89.71653644 -18 86 C-22.11311097 81.01777729 -22.55446064 77.49723575 -22.390625 71.3203125 C-22.38496521 70.50754852 -22.37930542 69.69478455 -22.37347412 68.85739136 C-22.35120838 66.27931055 -22.30103315 63.70265569 -22.25 61.125 C-22.2299222 59.36981184 -22.21167367 57.61460174 -22.1953125 55.859375 C-22.15137612 51.57237311 -22.08241911 47.28642773 -22 43 C-21.32888184 42.74895508 -20.65776367 42.49791016 -19.96630859 42.23925781 C-11.02484812 38.79886269 -4.76042616 34.85367373 -0.69140625 25.89453125 C2.31467537 17.65752795 1.31152207 8.52489349 0 0 Z " fill="#E34951" transform="translate(283,490)"/>
<path d="M0 0 C0.33 0 0.66 0 1 0 C1 16.83 1 33.66 1 51 C-4.61 51 -10.22 51 -16 51 C-16 35.16 -16 19.32 -16 3 C-14 5 -14 5 -13.75949097 6.91091919 C-13.76393219 7.68813324 -13.76837341 8.46534729 -13.77294922 9.26611328 C-13.77310028 10.14687531 -13.77325134 11.02763733 -13.77340698 11.93508911 C-13.78372955 12.88721283 -13.79405212 13.83933655 -13.8046875 14.8203125 C-13.8075174 15.79410858 -13.81034729 16.76790466 -13.81326294 17.77120972 C-13.82448087 20.88926349 -13.8495883 24.00703268 -13.875 27.125 C-13.88502772 29.23567294 -13.89415393 31.34635038 -13.90234375 33.45703125 C-13.92442547 38.63813091 -13.95896626 43.81901717 -14 49 C-9.38 49 -4.76 49 0 49 C0 32.83 0 16.66 0 0 Z " fill="#B22E8E" transform="translate(894,501)"/>
<path d="M0 0 C3.77789945 3.86376081 5.57947961 7.00070562 6.09057617 12.43115234 C6.07486572 13.74035645 6.05915527 15.04956055 6.04296875 16.3984375 C6.03872391 17.10022125 6.03447906 17.802005 6.03010559 18.52505493 C6.01343599 20.7462756 5.97580872 22.96655788 5.9375 25.1875 C5.92243788 26.70180973 5.90875216 28.21613381 5.89648438 29.73046875 C5.86357183 33.42477932 5.81187259 37.11854793 5.75 40.8125 C3.96289414 41.67616822 2.1701535 42.52818594 0.375 43.375 C-0.62273437 43.85066406 -1.62046875 44.32632813 -2.6484375 44.81640625 C-3.93621094 45.30947266 -3.93621094 45.30947266 -5.25 45.8125 C-5.91 45.4825 -6.57 45.1525 -7.25 44.8125 C-1.12913341 39.38718643 -1.12913341 39.38718643 2.75 38.8125 C5.30785903 36.25464097 4.0333832 29.30495901 4.0625 25.875 C4.09150391 24.77091797 4.12050781 23.66683594 4.15039062 22.52929688 C4.20480026 15.44348874 3.6536097 8.92460926 -0.25 2.8125 C-7.00410509 -1.80077949 -16.45150635 -0.46491677 -24.25 -0.1875 C-24.58 -0.8475 -24.91 -1.5075 -25.25 -2.1875 C-22.89628886 -2.3843999 -20.5425305 -2.57020974 -18.1875 -2.75 C-16.87652344 -2.85441406 -15.56554687 -2.95882813 -14.21484375 -3.06640625 C-8.66422158 -3.23593264 -4.6603697 -3.1367873 0 0 Z " fill="#B82AA6" transform="translate(489.25,429.1875)"/>
<path d="M0 0 C-2.95410037 2.95410037 -6.2308056 2.46929815 -10.20703125 2.62109375 C-11.04667923 2.65883408 -11.88632721 2.6965744 -12.75141907 2.73545837 C-23.0605501 3.1530774 -33.37213006 3.10880428 -43.6875 3.0625 C-45.67252489 3.0574664 -47.65755104 3.05290684 -49.64257812 3.04882812 C-54.42841751 3.03798953 -59.21419411 3.02083154 -64 3 C-64 2.34 -64 1.68 -64 1 C-42.6555966 0.19357961 -21.35917806 -0.13950428 0 0 Z " fill="#DC3B69" transform="translate(424,426)"/>
<path d="M0 0 C5.28 0 10.56 0 16 0 C16 2.64 16 5.28 16 8 C15.67 8 15.34 8 15 8 C15 5.69 15 3.38 15 1 C13.54119891 1.14107747 12.08296449 1.28802415 10.625 1.4375 C9.81289063 1.51871094 9.00078125 1.59992188 8.1640625 1.68359375 C5.95727195 1.89090114 5.95727195 1.89090114 4 3 C2.81998451 6.54004646 2.77087654 9.8227256 2.68359375 13.51171875 C2.66281265 14.23994339 2.64203156 14.96816803 2.62062073 15.71846008 C2.55531254 18.04137875 2.49632763 20.36440906 2.4375 22.6875 C2.39429695 24.26368335 2.35068208 25.83985548 2.30664062 27.41601562 C2.1996504 31.27722975 2.09833039 35.13855603 2 39 C1.34 38.67 0.68 38.34 0 38 C0 25.46 0 12.92 0 0 Z " fill="#D93770" transform="translate(793,483)"/>
<path d="M0 0 C0.99 0.33 1.98 0.66 3 1 C2.67773438 1.65613281 2.35546875 2.31226563 2.0234375 2.98828125 C-0.86942189 11.5012377 -0.07790404 22.83648401 3.77734375 30.90625 C5.65662169 34.12443842 7.70214531 37.06385234 10 40 C9.01 40.495 9.01 40.495 8 41 C7.01 40.34 6.02 39.68 5 39 C5.33 38.34 5.66 37.68 6 37 C5.34 37 4.68 37 4 37 C3.34 35.02 2.68 33.04 2 31 C1.34 31 0.68 31 0 31 C-3.45853304 19.80094063 -3.72604773 11.17814318 0 0 Z " fill="#9623B0" transform="translate(470,488)"/>
<path d="M0 0 C0.33 0 0.66 0 1 0 C1 14.85 1 29.7 1 45 C6.61 45 12.22 45 18 45 C18 45.33 18 45.66 18 46 C15.02111874 46.1938211 12.04209754 46.38035102 9.0625 46.5625 C8.21236328 46.61857422 7.36222656 46.67464844 6.48632812 46.73242188 C5.67744141 46.78076172 4.86855469 46.82910156 4.03515625 46.87890625 C3.2862915 46.9260376 2.53742676 46.97316895 1.76586914 47.02172852 C0 47 0 47 -1 46 C-1.79615104 30.75604922 -0.5597677 15.24473738 0 0 Z " fill="#190E22" transform="translate(835,506)"/>
<path d="M0 0 C0.33 0 0.66 0 1 0 C2.08972167 5.58482356 2.03694695 10.89402381 1.9375 16.5625 C1.99670924 19.81900802 2.37724224 22.80836646 3 26 C3.99 26.33 4.98 26.66 6 27 C6.391875 27.474375 6.78375 27.94875 7.1875 28.4375 C10.06984967 30.9222842 13.31012658 31.21363353 17 32 C17 32.33 17 32.66 17 33 C11.27956317 33.45763495 8.40116157 32.71653644 4 29 C-0.95128531 23.48464421 -0.47932498 18.28699557 -0.25 11.125 C-0.23195313 10.05507813 -0.21390625 8.98515625 -0.1953125 7.8828125 C-0.14837439 5.25427822 -0.08272933 2.62761087 0 0 Z " fill="#EE4662" transform="translate(261,547)"/>
<path d="M0 0 C5.11105211 1.81359914 9.07166131 4.26203406 14 7 C14 16.9 14 26.8 14 37 C13.67 37 13.34 37 13 37 C12.07840421 30.78829926 11.87822615 24.77390894 11.9375 18.5 C11.94201172 17.5821875 11.94652344 16.664375 11.95117188 15.71875 C11.96283674 13.47909609 11.97920386 11.23958455 12 9 C11.23042969 8.8865625 10.46085937 8.773125 9.66796875 8.65625 C6.03056124 7.76154361 4.50219534 5.70507605 2 3 C1.34 2.67 0.68 2.34 0 2 C0 1.34 0 0.68 0 0 Z " fill="#9C24E2" transform="translate(481,530)"/>
<path d="M0 0 C5.12222565 1.75234035 9.54125041 4.61588207 14.125 7.4375 C14.93582031 7.92798828 15.74664062 8.41847656 16.58203125 8.92382812 C17.36191406 9.40142578 18.14179688 9.87902344 18.9453125 10.37109375 C19.65187988 10.80349365 20.35844727 11.23589355 21.08642578 11.68139648 C24.19835248 13.82575934 25.75942577 15.20954181 26.875 18.875 C27.02260131 22.56503279 26.15456896 24.06978621 24 27 C23.67 26.01 23.34 25.02 23 24 C23.33 23.67 23.66 23.34 24 23 C24.42756894 20.09744517 24.42756894 20.09744517 24 17 C22.3277607 15.06972204 22.3277607 15.06972204 19.875 13.6875 C18.9778125 13.11128906 18.080625 12.53507812 17.15625 11.94140625 C16.1146875 11.30074219 15.073125 10.66007812 14 10 C12.09255507 8.78969998 10.19031994 7.57158476 8.28955078 6.35083008 C7.02096549 5.53859255 5.74852258 4.73234639 4.47216797 3.93237305 C2.96488176 2.98065574 1.47992744 1.99372649 0 1 C0 0.67 0 0.34 0 0 Z " fill="#A21B73" transform="translate(386,484)"/>
<path d="M0 0 C6.27 0 12.54 0 19 0 C16.8515625 8.49609375 16.8515625 8.49609375 16 11 C15.01 11.495 15.01 11.495 14 12 C14.99 8.7 15.98 5.4 17 2 C11.72 2 6.44 2 1 2 C0.34 3.32 -0.32 4.64 -1 6 C-0.67 4.02 -0.34 2.04 0 0 Z " fill="#9528B2" transform="translate(1032,460)"/>
<path d="M0 0 C0.33 0.99 0.66 1.98 1 3 C2.97557891 3.46096841 4.95244431 3.91765791 6.9375 4.3359375 C10.11285769 5.35830645 11.8094431 7.56604789 14 10 C15.051875 10.495 15.051875 10.495 16.125 11 C18.85592603 12.45649388 19.74268198 14.22066544 21 17 C20.57421875 19.1640625 20.57421875 19.1640625 20 21 C19.62488281 20.46890625 19.24976563 19.9378125 18.86328125 19.390625 C14.82005972 13.80955347 11.48993466 9.7237341 4.75 7.625 C2.671875 6.92578125 2.671875 6.92578125 1 6 C0 2.8125 0 2.8125 0 0 Z " fill="#EE5546" transform="translate(262,471)"/>
<path d="M0 0 C0.66 0.33 1.32 0.66 2 1 C0.36587557 2.70840281 -0.86906094 3.93453047 -3 5 C-6.17823595 10.84795416 -6.65471775 16.4158246 -7 23 C-9.35020498 20.64979502 -9.31914802 20.08090378 -9.375 16.875 C-9.25408276 11.86902643 -7.88441279 8.08241172 -5 4 C-2.25 1.5 -2.25 1.5 0 0 Z " fill="#7E28CB" transform="translate(1126,516)"/>
<path d="M0 0 C0 0.99 0 1.98 0 3 C-8.29902643 7.73713491 -8.29902643 7.73713491 -12 9.125 C-12.66 9.41375 -13.32 9.7025 -14 10 C-14.33 10.99 -14.66 11.98 -15 13 C-16.65 13.33 -18.3 13.66 -20 14 C-20 13.34 -20 12.68 -20 12 C-18.1640625 10.67138672 -18.1640625 10.67138672 -15.625 9.1796875 C-14.72265625 8.64472656 -13.8203125 8.10976563 -12.890625 7.55859375 C-11.93671875 7.00300781 -10.9828125 6.44742188 -10 5.875 C-9.04609375 5.31167969 -8.0921875 4.74835937 -7.109375 4.16796875 C-4.74337273 2.77202741 -2.3735318 1.38308728 0 0 Z " fill="#971783" transform="translate(407,510)"/>
<path d="M0 0 C0.33 0.99 0.66 1.98 1 3 C4.96 3 8.92 3 13 3 C13.33 2.34 13.66 1.68 14 1 C14.66 1 15.32 1 16 1 C15.67 2.32 15.34 3.64 15 5 C9.72 5 4.44 5 -1 5 C-0.67 3.35 -0.34 1.7 0 0 Z " fill="#B52F94" transform="translate(908,498)"/>
<path d="M0 0 C1.76923828 0.01353516 1.76923828 0.01353516 3.57421875 0.02734375 C4.47785156 0.03894531 5.38148438 0.05054688 6.3125 0.0625 C6.3125 0.3925 6.3125 0.7225 6.3125 1.0625 C5.58804688 1.09988281 4.86359375 1.13726562 4.1171875 1.17578125 C-1.55703437 1.56162834 -5.67573984 2.18073791 -10.6875 5.0625 C-11.6775 5.0625 -12.6675 5.0625 -13.6875 5.0625 C-13.6875 5.7225 -13.6875 6.3825 -13.6875 7.0625 C-15.6675 8.0525 -15.6675 8.0525 -17.6875 9.0625 C-16.18114535 4.84470697 -13.44737578 3.2877326 -9.6875 1.0625 C-6.26517028 -0.07827657 -3.60076783 -0.03565117 0 0 Z " fill="#EA435A" transform="translate(684.6875,481.9375)"/>
<path d="M0 0 C0.99 0.33 1.98 0.66 3 1 C1.80225367 7.10850627 0.19159949 9.50361667 -5 13 C-5.99 13 -6.98 13 -8 13 C-7.67 12.01 -7.34 11.02 -7 10 C-5.68 10 -4.36 10 -3 10 C-2.87625 9.4225 -2.7525 8.845 -2.625 8.25 C-1.99356636 5.97683888 -1.05142447 4.10284895 0 2 C0 1.34 0 0.68 0 0 Z " fill="#7E20C9" transform="translate(492,566)"/>
<path d="M0 0 C-1.24735567 0.6509259 -2.49801832 1.29551669 -3.75 1.9375 C-4.44609375 2.29714844 -5.1421875 2.65679687 -5.859375 3.02734375 C-7.90224433 3.95558182 -9.81115376 4.53166578 -12 5 C-12 5.66 -12 6.32 -12 7 C-13.53125 8.5078125 -13.53125 8.5078125 -15.5 10.125 C-16.1496875 10.66382813 -16.799375 11.20265625 -17.46875 11.7578125 C-17.9740625 12.16773438 -18.479375 12.57765625 -19 13 C-19.66 12.67 -20.32 12.34 -21 12 C-7.59506922 -2.71985587 -7.59506922 -2.71985587 0 0 Z " fill="#EC4553" transform="translate(557,462)"/>
<path d="M0 0 C1.65 0 3.3 0 5 0 C5 0.66 5 1.32 5 2 C6.051875 2.37125 6.051875 2.37125 7.125 2.75 C10.37002459 4.16088026 13.10316737 5.97895398 16 8 C15.01 8.495 15.01 8.495 14 9 C12.37109375 8.00390625 12.37109375 8.00390625 10.4375 6.5625 C5.92714969 3.56663429 2.28008517 3.44999113 -3 4 C-3 3.34 -3 2.68 -3 2 C-2.01 2 -1.02 2 0 2 C0 1.34 0 0.68 0 0 Z " fill="#CB2B4E" transform="translate(349,462)"/>
<path d="M0 0 C0 0.99 0 1.98 0 3 C-7.77537797 7.18142549 -7.77537797 7.18142549 -12.375 6.5 C-15.08789277 4.94977556 -16.40423325 3.65961125 -18 1 C-17.195625 1.4640625 -17.195625 1.4640625 -16.375 1.9375 C-13.39527562 3.27053459 -11.28860175 3.87351532 -8 4 C-5.18011086 2.9158188 -2.59768947 1.53619707 0 0 Z " fill="#A71E7B" transform="translate(361,538)"/>
<path d="M0 0 C4.1724106 0.51881113 6.25416821 1.71151274 9.3125 4.5625 C10.00988281 5.20316406 10.70726562 5.84382813 11.42578125 6.50390625 C11.94527344 6.99761719 12.46476562 7.49132812 13 8 C12.67 8.99 12.34 9.98 12 11 C9.5625 10.3125 9.5625 10.3125 7 9 C6.855625 8.195625 6.71125 7.39125 6.5625 6.5625 C6.376875 5.716875 6.19125 4.87125 6 4 C3.03292954 2.14083176 3.03292954 2.14083176 0 1 C0 0.67 0 0.34 0 0 Z " fill="#752CE4" transform="translate(1161,484)"/>
<path d="M0 0 C1.35439668 2.70879335 1.06501451 5.00933268 1 8 C-0.32 8.33 -1.64 8.66 -3 9 C-3.99 12.465 -3.99 12.465 -5 16 C-5.8852947 13.52455813 -6.09093521 12.28988738 -5.29296875 9.74609375 C-4.92816406 8.98425781 -4.56335938 8.22242188 -4.1875 7.4375 C-3.83042969 6.67308594 -3.47335937 5.90867187 -3.10546875 5.12109375 C-2 3 -2 3 0 0 Z " fill="#E84453" transform="translate(535,476)"/>
<path d="M0 0 C3.4482152 0.74240932 5.09581815 2.76363129 7.1953125 5.47265625 C6.2053125 5.96765625 6.2053125 5.96765625 5.1953125 6.47265625 C4.6590625 5.81265625 4.1228125 5.15265625 3.5703125 4.47265625 C1.31321352 2.21372473 1.31321352 2.21372473 -1.8671875 2.03515625 C-5.0151721 2.50400502 -5.93254309 2.97646371 -7.8046875 5.47265625 C-8.7946875 5.14265625 -9.7846875 4.81265625 -10.8046875 4.47265625 C-7.74483365 0.21546828 -4.95805063 -0.18817684 0 0 Z " fill="#EF4656" transform="translate(627.8046875,456.52734375)"/>
<path d="M0 0 C4.29 0 8.58 0 13 0 C10 3 10 3 6.5 3.375 C3 3 3 3 0 0 Z " fill="#C13269" transform="translate(746,539)"/>
<path d="M0 0 C0.66 0.99 1.32 1.98 2 3 C0.21289414 3.86366822 -1.5798465 4.71568594 -3.375 5.5625 C-4.37273437 6.03816406 -5.37046875 6.51382812 -6.3984375 7.00390625 C-7.25695312 7.33261719 -8.11546875 7.66132813 -9 8 C-9.66 7.67 -10.32 7.34 -11 7 C-4.87913341 1.57468643 -4.87913341 1.57468643 -1 1 C-0.67 0.67 -0.34 0.34 0 0 Z " fill="#9F26A6" transform="translate(493,467)"/>
<path d="M0 0 C3.5875213 1.33250791 6.8364623 2.830717 10 5 C10 5.66 10 6.32 10 7 C10.66 7.33 11.32 7.66 12 8 C9.8125 8.3125 9.8125 8.3125 7 8 C4.3125 5.5625 4.3125 5.5625 2 3 C1.34 2.67 0.68 2.34 0 2 C0 1.34 0 0.68 0 0 Z " fill="#8D21BF" transform="translate(481,530)"/>
<path d="M0 0 C0.33 0 0.66 0 1 0 C1 2.64 1 5.28 1 8 C-5.435 8.495 -5.435 8.495 -12 9 C-11.67 7.68 -11.34 6.36 -11 5 C-10.34 5.33 -9.68 5.66 -9 6 C-7.46331135 6.22467831 -5.92031946 6.40796805 -4.375 6.5625 C-3.55773437 6.64628906 -2.74046875 6.73007812 -1.8984375 6.81640625 C-1.27195312 6.87699219 -0.64546875 6.93757812 0 7 C0 4.69 0 2.38 0 0 Z " fill="#8F278F" transform="translate(961,542)"/>
<path d="M0 0 C0.99 0.495 0.99 0.495 2 1 C2 7 2 13 2 19 C1.67 19 1.34 19 1 19 C-0.00926479 14.84373632 -0.10239579 10.95634906 -0.0625 6.6875 C-0.05347656 5.43324219 -0.04445313 4.17898438 -0.03515625 2.88671875 C-0.01775391 1.45779297 -0.01775391 1.45779297 0 0 Z " fill="#ED4E57" transform="translate(261,533)"/>
<path d="M0 0 C2.37031549 0.9481262 3.76672508 1.68896678 5.3125 3.75 C6.25644575 6.83927699 5.8717649 8.91529342 5 12 C4.01 12.66 3.02 13.32 2 14 C2.10699219 13.32453125 2.21398437 12.6490625 2.32421875 11.953125 C2.50404297 10.61507813 2.50404297 10.61507813 2.6875 9.25 C2.81511719 8.36828125 2.94273437 7.4865625 3.07421875 6.578125 C2.98397191 3.44323483 2.07384637 2.28176413 0 0 Z " fill="#971380" transform="translate(407,497)"/>
<path d="M0 0 C0.53625 0.2475 1.0725 0.495 1.625 0.75 C0.655625 1.20375 -0.31375 1.6575 -1.3125 2.125 C-4.44579582 3.40786221 -4.44579582 3.40786221 -5.375 5.75 C-7.01863134 6.47159424 -8.68550386 7.14351421 -10.375 7.75 C-8.77449323 3.26858103 -4.98031651 -0.52424384 0 0 Z " fill="#D23678" transform="translate(821.375,483.25)"/>
<path d="M0 0 C0.33 0.99 0.66 1.98 1 3 C1.66 3 2.32 3 3 3 C3 3.66 3 4.32 3 5 C3.66 5.66 4.32 6.32 5 7 C5.125 9.625 5.125 9.625 5 12 C4.34 12 3.68 12 3 12 C-0.42857143 4.71428571 -0.42857143 4.71428571 0 0 Z " fill="#E64D4B" transform="translate(283,490)"/>
<path d="M0 0 C1.41777182 0.08785338 2.83429039 0.19604647 4.25 0.3125 C5.43335938 0.39951172 5.43335938 0.39951172 6.640625 0.48828125 C9.39184062 1.0849853 10.88035957 2.18663789 13 4 C11.20741442 3.91306859 9.41584856 3.80489496 7.625 3.6875 C6.62726562 3.62949219 5.62953125 3.57148438 4.6015625 3.51171875 C3.74304688 3.34285156 2.88453125 3.17398437 2 3 C1.34 2.01 0.68 1.02 0 0 Z " fill="#EB4456" transform="translate(575,460)"/>
<path d="M0 0 C1 3 1 3 1 6 C1.66 6.66 2.32 7.32 3 8 C0.69 8 -1.62 8 -4 8 C-2.99983813 4.9995144 -1.6627026 2.67478244 0 0 Z " fill="#7428C2" transform="translate(1124,493)"/>
<path d="M0 0 C0.433125 0.495 0.86625 0.99 1.3125 1.5 C2.99740483 3.33218192 2.99740483 3.33218192 6 3 C3.03 5.475 3.03 5.475 0 8 C0 5.36 0 2.72 0 0 Z " fill="#050412" transform="translate(665,483)"/>
<path d="M0 0 C1.50433594 0.01353516 1.50433594 0.01353516 3.0390625 0.02734375 C3.80992188 0.03894531 4.58078125 0.05054688 5.375 0.0625 C5.375 0.3925 5.375 0.7225 5.375 1.0625 C2.39648438 1.35546875 2.39648438 1.35546875 -0.58203125 1.6484375 C-2.92488142 1.98915391 -2.92488142 1.98915391 -5.625 4.0625 C-6.285 3.0725 -6.945 2.0825 -7.625 1.0625 C-4.98041621 -0.25979189 -2.94738699 -0.03427194 0 0 Z " fill="#01090D" transform="translate(1148.625,522.9375)"/>
<path d="M0 0 C0.66 0.33 1.32 0.66 2 1 C-2.625 6.875 -2.625 6.875 -6 8 C-4.73058503 4.08597051 -3.48832306 2.20927127 0 0 Z " fill="#B32D93" transform="translate(913,516)"/>
<path d="M0 0 C0.99 0 1.98 0 3 0 C2.01 2.97 1.02 5.94 0 9 C-0.66 9 -1.32 9 -2 9 C-1.125 2.25 -1.125 2.25 0 0 Z " fill="#100B1A" transform="translate(812,502)"/>
<path d="M0 0 C1.32 0 2.64 0 4 0 C4.33 1.98 4.66 3.96 5 6 C5.66 6 6.32 6 7 6 C6.67 6.99 6.34 7.98 6 9 C5.01 8.67 4.02 8.34 3 8 C3 5.69 3 3.38 3 1 C2.01 0.67 1.02 0.34 0 0 Z " fill="#DF3C51" transform="translate(660,484)"/>
<path d="M0 0 C2 2 2 2 2 6 C2.99 6.33 3.98 6.66 5 7 C4.01 7.33 3.02 7.66 2 8 C0.4375 5.6875 0.4375 5.6875 -1 3 C-0.67 2.01 -0.34 1.02 0 0 Z " fill="#DD415C" transform="translate(262,567)"/>
<path d="M0 0 C0.99 0.33 1.98 0.66 3 1 C3.625 3.375 3.625 3.375 4 6 C3.34 6.66 2.68 7.32 2 8 C0.74335022 5.09399739 0 3.20395416 0 0 Z " fill="#A42799" transform="translate(491,434)"/>
</svg>
