<?xml version="1.0" encoding="UTF-8"?>
<svg version="1.1" xmlns="http://www.w3.org/2000/svg" width="1024" height="1024">
<path d="M0 0 C337.92 0 675.84 0 1024 0 C1024 337.92 1024 675.84 1024 1024 C686.08 1024 348.16 1024 0 1024 C0 686.08 0 348.16 0 0 Z " fill="#0E1E3A" transform="translate(0,0)"/>
<path d="M0 0 C1.94921875 1.6953125 1.94921875 1.6953125 3.6875 4.125 C4.36554688 5.03894531 5.04359375 5.95289063 5.7421875 6.89453125 C6.48726562 7.91933594 7.23234375 8.94414062 8 10 C9.75131679 12.28625208 11.53101262 14.5497161 13.3125 16.8125 C13.77382324 17.40256836 14.23514648 17.99263672 14.71044922 18.60058594 C18.43407096 23.34348004 22.30580991 27.94569296 26.22583008 32.52661133 C29.0796658 35.87363918 31.75475565 39.29140891 34.34375 42.84375 C36.62758319 45.81704227 39.06545494 48.64972199 41.5 51.5 C42.91131447 53.16384542 44.32073901 54.8292541 45.72851562 56.49609375 C46.84168709 57.81274817 47.95952328 59.12545588 49.078125 60.4375 C52.9813163 65.25265188 52.9813163 65.25265188 53.0625 68.5 C52.20142953 70.52604816 51.33239417 72.54870998 50.4609375 74.5703125 C48.73857095 79.20466182 48.50017733 83.465853 48.5625 88.375 C48.57007324 89.21135986 48.57764648 90.04771973 48.58544922 90.90942383 C48.75518567 97.27454064 49.65206513 102.48268677 53 108 C53.42410156 108.71285156 53.84820312 109.42570312 54.28515625 110.16015625 C57.9001092 115.54734241 62.33100927 118.93420982 68 122 C68.75410156 122.41507813 69.50820313 122.83015625 70.28515625 123.2578125 C75.95986283 125.82986651 80.65307809 126.03781205 86.76000977 125.70703125 C98.57150785 125.09788351 98.57150785 125.09788351 103.296875 128.08203125 C105.85096455 130.9177052 107.9289059 133.79773859 110 137 C111.35887784 138.70050941 112.73330561 140.38874136 114.125 142.0625 C115.4190635 143.70644945 116.71079238 145.35223975 118 147 C119.22687652 148.54348982 120.45610454 150.08511298 121.6875 151.625 C122.34492188 152.44742188 123.00234375 153.26984375 123.6796875 154.1171875 C125.98789113 156.98495565 128.310785 159.84022106 130.63671875 162.69360352 C136.27240025 169.60930067 141.86565251 176.55319118 147.33984375 183.59765625 C149.17843891 185.96312833 151.04928909 188.29824058 152.94140625 190.62109375 C153.87768256 191.78899966 154.81388326 192.95696618 155.75 194.125 C156.19303467 194.65762451 156.63606934 195.19024902 157.0925293 195.73901367 C160.02757192 199.44039217 160.02757192 199.44039217 159.89453125 202.140625 C158.98806841 204.02480103 157.97833638 205.81193017 156.9375 207.625 C153.43698681 215.34408036 153.48996347 225.96220573 155.90625 234.0234375 C156.93474784 236.33662451 156.93474784 236.33662451 158.125 238.2734375 C159 240 159 240 159 244 C157.75341797 245.47290039 157.75341797 245.47290039 155.9921875 246.84765625 C155.017052 247.62351074 155.017052 247.62351074 154.0222168 248.41503906 C153.31363525 248.95870117 152.60505371 249.50236328 151.875 250.0625 C151.15159424 250.63323242 150.42818848 251.20396484 149.68286133 251.79199219 C147.46381911 253.53928481 145.2327035 255.27021609 143 257 C141.73467822 257.9922171 140.47029249 258.98562955 139.20703125 259.98046875 C137.45346818 261.36115325 135.6992223 262.7408355 133.94091797 264.11547852 C129.51152676 267.57945717 125.16076825 271.13216609 120.8203125 274.70703125 C117.70279435 277.24163396 114.54325473 279.71692025 111.375 282.1875 C105.17762511 287.02542287 99.10271339 292.00269256 93.04321289 297.01171875 C83.16275955 305.17838836 73.08796734 313.09242906 63 321 C60.24215033 319.67916734 57.72822354 318.19726542 55.1875 316.5 C48.47838923 312.31143913 41.80954477 311.16666443 34 312 C31.59279534 312.68454882 29.31834517 313.48223678 27.0078125 314.44140625 C24.40349796 315.1659529 23.46152654 315.17725182 21 314 C19.1325525 311.91198783 17.47162127 309.86753887 15.8125 307.625 C14.83298317 306.33911807 13.85250252 305.0539698 12.87109375 303.76953125 C12.38624512 303.12967285 11.90139648 302.48981445 11.40185547 301.83056641 C9.44769818 299.27879501 7.41796171 296.79349568 5.375 294.3125 C4.65183594 293.43335938 3.92867187 292.55421875 3.18359375 291.6484375 C2.46300781 290.77445313 1.74242187 289.90046875 1 289 C-3.36125137 283.68869902 -7.71402032 278.37232701 -12 273 C-15.44765569 268.67857696 -18.94038737 264.39613219 -22.4453125 260.12109375 C-25.49344804 256.40061126 -28.52868004 252.66965949 -31.5625 248.9375 C-32.40663452 247.89928101 -32.40663452 247.89928101 -33.26782227 246.84008789 C-36.24046774 243.17993918 -39.19482217 239.50681044 -42.125 235.8125 C-45.63708013 231.40387621 -49.27708456 227.11200156 -52.9296875 222.82006836 C-56.38379909 218.75249216 -59.74206673 214.61833407 -63.05859375 210.4375 C-65.08054699 207.89887058 -67.12972269 205.3846667 -69.1875 202.875 C-76.48371067 193.9756427 -83.77471715 185.06977629 -90.9375 176.0625 C-94.57408572 171.49939562 -98.2858578 166.99995704 -102 162.5 C-106.33929542 157.24262374 -110.65252771 151.96923486 -114.89453125 146.6328125 C-117.10679265 143.86645965 -119.33865525 141.11689459 -121.57543945 138.37036133 C-122.6890424 137.00185874 -123.80086962 135.6319092 -124.91088867 134.26049805 C-127.75932424 130.74198888 -130.62756215 127.24391432 -133.5390625 123.77734375 C-134.65109666 122.43494139 -135.76307786 121.09249515 -136.875 119.75 C-137.40512695 119.13036377 -137.93525391 118.51072754 -138.48144531 117.87231445 C-139.9296875 116.109375 -139.9296875 116.109375 -142 113 C-141.66386347 110.44470969 -141.35547626 109.34624311 -139.49609375 107.53515625 C-138.81675781 107.04917969 -138.13742188 106.56320312 -137.4375 106.0625 C-132.95760673 102.74169022 -128.6249199 99.28311652 -124.3125 95.75 C-119.26956644 91.6338949 -114.19723018 87.56344372 -109.0625 83.5625 C-102.96792128 78.80899224 -96.99905047 73.9115603 -91.04199219 68.98730469 C-84.7208023 63.76244167 -78.34736674 58.61329509 -71.8828125 53.56640625 C-64.51504972 47.81409211 -57.25303925 41.95051482 -50.05004883 35.99291992 C-45.50607649 32.23527449 -40.931473 28.52175094 -36.31640625 24.8515625 C-31.8435417 21.27628797 -27.42707375 17.63168028 -23 14 C-20.14871858 11.66955265 -17.29752708 9.33924072 -14.4375 7.01953125 C-12.99191656 5.8218283 -11.56591095 4.59865474 -10.1875 3.32421875 C-6.7135113 0.11258857 -4.69589515 -0.58099723 0 0 Z " fill="#F4C026" transform="translate(201,399)"/>
<path d="M0 0 C0.58007812 0.40992188 1.16015625 0.81984375 1.7578125 1.2421875 C10.32849086 7.15397554 16.60541887 8.60635057 27 8 C28.0828125 7.76152344 29.165625 7.52304687 30.28125 7.27734375 C33.89065477 6.55975971 36.38437246 6.24210027 40 7 C43.98936434 10.60363772 46.81422176 14.67532014 49.75195312 19.15039062 C51.50224793 21.744333 53.4824905 24.11046747 55.5 26.5 C59.01844792 30.78194476 62.4952858 35.09418261 65.9375 39.4375 C66.41058594 40.02917969 66.88367188 40.62085938 67.37109375 41.23046875 C69.58272748 44.03358592 71.58469644 46.70840829 73 50 C72.13375 50.22816406 71.2675 50.45632813 70.375 50.69140625 C66.57078744 52.16641922 63.98072853 54.2473925 61 56.9375 C59.85610037 57.93841218 58.71020009 58.93704166 57.5625 59.93359375 C56.68271484 60.69905518 56.68271484 60.69905518 55.78515625 61.47998047 C52.9284136 63.9124312 49.96722322 66.20470233 47 68.5 C42.40830606 72.06617335 37.91591444 75.71838244 33.5 79.5 C28.57695888 83.71250679 23.54788203 87.75699526 18.43701172 91.73876953 C11.90053793 96.8382609 5.48166987 102.07970628 -0.94140625 107.32080078 C-4.41617379 110.15517592 -7.89530958 112.9841721 -11.375 115.8125 C-12.38796143 116.63596924 -12.38796143 116.63596924 -13.42138672 117.47607422 C-17.70038586 120.95190237 -21.99739182 124.40401277 -26.30859375 127.83984375 C-29.19475002 130.1563088 -32.06515032 132.49142073 -34.93432617 134.82885742 C-49.89170279 147.01336257 -49.89170279 147.01336257 -57.4296875 152.5 C-58.32941284 153.1657605 -58.32941284 153.1657605 -59.24731445 153.8449707 C-60.43588753 154.72405118 -61.6321518 155.59284876 -62.83666992 156.44995117 C-64.6825497 157.77971688 -64.6825497 157.77971688 -67 160 C-67 161.32 -67 162.64 -67 164 C-67.66 164 -68.32 164 -69 164 C-69.20753906 163.32839844 -69.41507813 162.65679687 -69.62890625 161.96484375 C-71.48048857 157.96099479 -74.1119144 154.92410565 -76.9375 151.5625 C-78.11552609 150.13749759 -79.29259217 148.71170107 -80.46875 147.28515625 C-81.06042969 146.5698877 -81.65210937 145.85461914 -82.26171875 145.11767578 C-85.78441168 140.82612543 -89.20086993 136.45184014 -92.60546875 132.06640625 C-94.06254043 130.2004988 -95.53944855 128.34957918 -97.05078125 126.52734375 C-100.98314668 121.69098627 -100.98314668 121.69098627 -101.0625 118.4375 C-100.711875 117.633125 -100.36125 116.82875 -100 116 C-99.2575 114.2675 -99.2575 114.2675 -98.5 112.5 C-98.005 111.345 -97.51 110.19 -97 109 C-94.77017712 100.17110669 -94.93476612 91.13046776 -99 83 C-98.86026866 79.91955913 -97.99246518 78.99259714 -95.76953125 76.80859375 C-94.79371094 76.02613281 -93.81789063 75.24367188 -92.8125 74.4375 C-92.27713623 74.00405273 -91.74177246 73.57060547 -91.19018555 73.12402344 C-89.46948016 71.73711949 -87.73709117 70.36631138 -86 69 C-85.45085937 68.56768066 -84.90171875 68.13536133 -84.3359375 67.68994141 C-82.08221181 65.91887083 -79.82639713 64.15055965 -77.56567383 62.38842773 C-72.81055884 58.67133296 -68.14771488 54.85020273 -63.5 51 C-58.38524167 46.76354506 -53.2408612 42.57950391 -48 38.5 C-38.05093335 30.74665886 -28.32038921 22.71437767 -18.74121094 14.5090332 C-12.70701116 9.34167995 -6.51278436 4.55503355 0 0 Z " fill="#1A3557" transform="translate(127,349)"/>
<path d="M0 0 C3.4994324 0.93154768 6.00645905 2.80309406 8.23046875 5.59375 C8.85639657 8.41524004 9.04497325 10.22888245 8.91796875 13.03125 C8.89669922 14.11224976 8.89669922 14.11224976 8.875 15.21508789 C8.46576176 24.54788397 6.03779926 33.61464876 3.68945312 42.61694336 C3.15507927 44.5802141 3.15507927 44.5802141 3.23046875 46.59375 C7.26966392 39.42415017 7.26966392 39.42415017 10.73046875 31.96875 C14.87436215 22.64498985 22.42502273 10.99074743 31.109375 5.375 C36.01446232 3.568338 41.13394185 3.7812602 46.23046875 4.59375 C51.64724273 8.02068864 54.30114614 14.68511585 55.76049805 20.82299805 C56.29469899 23.9724248 56.4448169 27.01407069 56.546875 30.20703125 C56.58876953 31.45419922 56.63066406 32.70136719 56.67382812 33.98632812 C56.71314453 35.27990234 56.75246094 36.57347656 56.79296875 37.90625 C56.83615234 39.21916016 56.87933594 40.53207031 56.92382812 41.88476562 C57.02974102 45.12099288 57.1318176 48.35729458 57.23046875 51.59375 C57.89046875 51.59375 58.55046875 51.59375 59.23046875 51.59375 C59.31296875 50.954375 59.39546875 50.315 59.48046875 49.65625 C63.07403079 34.98253835 73.84601532 15.29097702 86.16796875 6.46875 C90.48771526 4.08018428 94.4047954 3.81120838 99.23046875 4.59375 C103.72927013 5.94339041 107.32007058 7.65790755 110.171875 11.51953125 C114.35757524 19.72103245 114.46407362 29.70965329 115.16796875 38.71875 C116.33044481 53.94665873 116.33044481 53.94665873 124.23046875 66.59375 C124.89046875 66.92375 125.55046875 67.25375 126.23046875 67.59375 C125.62023253 74.06225394 125.62023253 74.06225394 123.85546875 76.46875 C119.54249243 79.45465668 114.24259437 79.25056521 109.23046875 78.59375 C103.02048118 75.14375691 101.389901 70.14297702 99.23046875 63.59375 C98.29927091 59.74502222 97.64364663 55.88137605 97.04296875 51.96875 C96.87571289 50.92783203 96.70845703 49.88691406 96.53613281 48.81445312 C95.23835865 40.41648137 94.48027353 32.08711257 94.23046875 23.59375 C89.35371006 25.89120725 87.34857065 29.17179103 84.91796875 33.78125 C84.53334473 34.48523926 84.1487207 35.18922852 83.75244141 35.91455078 C81.07127889 40.86870539 78.57883524 45.90870994 76.10546875 50.96875 C67.96540205 67.57649597 67.96540205 67.57649597 60.23046875 72.59375 C59.63234375 73.00625 59.03421875 73.41875 58.41796875 73.84375 C54.93664916 75.03734529 51.79175281 75.48407101 48.23046875 74.59375 C43.42390368 71.03098905 41.32933518 66.38777297 40.23046875 60.59375 C39.15854615 52.89424408 38.90436429 45.17418156 38.625 37.4140625 C38.56892578 36.01027344 38.56892578 36.01027344 38.51171875 34.578125 C38.48142578 33.73991211 38.45113281 32.90169922 38.41992188 32.03808594 C38.2226685 29.49311067 37.77952971 27.08453059 37.23046875 24.59375 C30.6554465 29.54205042 26.78634019 35.32876101 22.48046875 42.28125 C21.78671143 43.38380127 21.0929541 44.48635254 20.37817383 45.62231445 C10.41789876 61.49030793 10.41789876 61.49030793 1.5625 77.98828125 C0.23046875 80.59375 0.23046875 80.59375 -1.76953125 82.59375 C-4.80717741 83.09806963 -7.72642264 83.04317707 -10.76953125 82.59375 C-13.801688 80.39543636 -14.58607523 79.14411806 -15.76953125 75.59375 C-17.29737813 56.67622769 -14.22931725 37.73666133 -10.75463867 19.20141602 C-9.90420532 14.62758566 -9.3700801 10.12354329 -9.17578125 5.4765625 C-8.10025424 0.49190846 -4.58954985 0.21985868 0 0 Z " fill="#DDB227" transform="translate(619.76953125,428.40625)"/>
<path d="M0 0 C1.77804925 1.76412197 2.11507966 3.0417093 2.49609375 5.484375 C3.44484375 5.5875 4.39359375 5.690625 5.37109375 5.796875 C8.49609375 6.484375 8.49609375 6.484375 10.49609375 9.484375 C10.76589631 13.05925895 10.71957535 15.82882897 9.55859375 19.234375 C6.7199347 27.9173321 7.28771047 37.75043997 7.24609375 46.796875 C7.22546875 47.93705078 7.20484375 49.07722656 7.18359375 50.25195312 C7.09351338 58.3102032 7.09351338 58.3102032 10.49609375 65.484375 C11.85734375 66.4434375 11.85734375 66.4434375 13.24609375 67.421875 C15.49609375 69.484375 15.49609375 69.484375 15.80859375 72.984375 C14.42460384 76.67501477 14.12053586 77.14196616 10.87109375 78.921875 C5.96795269 80.95681011 1.83142162 81.40764416 -3.19140625 79.421875 C-6.84764173 76.35854257 -9.17831072 72.8690218 -9.82495117 68.13305664 C-9.89597348 65.59295015 -9.85430651 63.0858431 -9.75390625 60.546875 C-9.73585938 59.67224609 -9.7178125 58.79761719 -9.69921875 57.89648438 C-9.65248978 55.75863392 -9.58076066 53.62135455 -9.50390625 51.484375 C-10.16390625 51.484375 -10.82390625 51.484375 -11.50390625 51.484375 C-11.75269531 52.19851563 -12.00148438 52.91265625 -12.2578125 53.6484375 C-16.50036115 63.30389305 -24.45617266 69.59859886 -33.50390625 74.484375 C-35.11265625 75.4434375 -35.11265625 75.4434375 -36.75390625 76.421875 C-42.82775516 78.14279886 -49.25483153 78.36423364 -55.50390625 77.484375 C-58.46484375 75.58203125 -58.46484375 75.58203125 -60.50390625 73.484375 C-60.50390625 72.824375 -60.50390625 72.164375 -60.50390625 71.484375 C-61.16390625 71.484375 -61.82390625 71.484375 -62.50390625 71.484375 C-66.51340484 59.95706656 -64.50547326 47.60110907 -59.65820312 36.55761719 C-55.66985505 28.48354099 -50.47077121 21.21528974 -44.50390625 14.484375 C-43.9521875 13.86175781 -43.40046875 13.23914063 -42.83203125 12.59765625 C-31.95276018 1.07080952 -15.2704506 -9.95498188 0 0 Z " fill="#DDB127" transform="translate(821.50390625,431.515625)"/>
<path d="M0 0 C2.69046574 1.63538113 3.70648537 3.04627544 4.65625 6.03125 C4.6975 6.77375 4.73875 7.51625 4.78125 8.28125 C5.915625 8.425625 7.05 8.57 8.21875 8.71875 C11.78125 9.28125 11.78125 9.28125 12.78125 10.28125 C13.30219002 16.36593096 12.40935944 22.13898928 11.28125 28.09375 C9.26420192 39.83409429 6.2763645 57.49079288 12.78125 68.28125 C15.25139472 69.95738187 15.25139472 69.95738187 17.78125 70.28125 C18.78125 71.28125 18.78125 71.28125 19.21875 73.53125 C18.69739293 76.8083516 17.53947339 78.3333715 14.89453125 80.328125 C10.38975949 82.35985201 5.57660244 81.98842978 0.78125 81.28125 C-3.14238382 79.35947017 -3.99239006 77.72588559 -5.96875 73.84375 C-7.86856367 68.18724262 -7.95719116 62.19789134 -8.21875 56.28125 C-8.75242187 56.9825 -9.28609375 57.68375 -9.8359375 58.40625 C-17.41383852 68.05561877 -26.6432467 77.79404325 -39.21875 80.28125 C-44.0637653 80.65672063 -48.60800467 80.93240237 -53.15625 79.09375 C-58.27968943 74.59133353 -60.78392509 70.12894484 -61.5546875 63.30859375 C-61.8018425 43.75863316 -51.88538621 27.52722428 -38.7734375 13.703125 C-28.39890161 3.89568593 -14.80344384 -4.79548181 0 0 Z " fill="#DEB227" transform="translate(700.21875,582.71875)"/>
<path d="M0 0 C3.43079076 2.61038427 5.94194362 5.32138725 7.875 9.1875 C8.71363309 17.87628877 7.90746335 25.75776971 2.58984375 32.91796875 C-0.27875308 35.77058454 -2.92015223 36.52321259 -6.8125 36.6875 C-9.52378011 36.65003844 -10.71618412 36.50577276 -12.87109375 34.828125 C-14.85177251 32.2365827 -14.49261212 30.37347168 -14.125 27.1875 C-13.63 26.053125 -13.135 24.91875 -12.625 23.75 C-11.00832571 19.91039856 -10.79530441 17.30869483 -11.125 13.1875 C-12.35553455 11.74064991 -12.35553455 11.74064991 -16.0625 11.875 C-29.49228278 12.08749656 -41.05858088 22.15398984 -50.125 31.1875 C-62.81277238 44.98274397 -70.86591402 61.30645004 -70.6640625 80.26367188 C-70.43905812 85.13726667 -69.81113843 88.89823081 -66.73046875 92.73828125 C-61.68225168 97.29518766 -56.58803977 98.89301414 -49.8125 98.5625 C-38.41978236 96.97281847 -28.89883071 91.02696276 -19.30688477 85.05566406 C-14.38940099 82.08080047 -11.69417225 81.79668089 -6.125 82.1875 C-4.61610531 85.20528937 -4.62473724 86.81072637 -5.125 90.1875 C-11.83487899 101.66305275 -26.16047178 107.14832423 -38.125 111.1875 C-38.98867188 111.5071875 -39.85234375 111.826875 -40.7421875 112.15625 C-51.16659234 115.75316924 -62.81090189 115.22920428 -72.98046875 111 C-81.49078096 106.77355615 -85.82089226 101.73195458 -89.5 93.0625 C-94.45336242 77.80530773 -89.59626338 60.93414259 -82.9375 46.875 C-74.7426292 31.7038922 -63.66093717 17.73391906 -49.125 8.1875 C-48.3928125 7.68863281 -47.660625 7.18976563 -46.90625 6.67578125 C-33.45500772 -1.99328236 -14.8563448 -8.61667999 0 0 Z " fill="#DEB227" transform="translate(349.125,404.8125)"/>
<path d="M0 0 C3.42447107 2.35908007 5.47471665 4.13996276 7 8 C8.12324631 16.72585026 7.14243012 23.80762621 2 31 C-7.19368229 42.6225416 -21.98544377 50.5590817 -36 55 C-37.32 55 -38.64 55 -40 55 C-39.92038145 60.97960986 -39.92038145 60.97960986 -36.375 65.5 C-29.56765183 68.52548808 -23.94901928 66.78508576 -17.1953125 64.3984375 C-10.06795043 61.27912745 -3.78966956 56.73131073 1.9375 51.5 C5 49 5 49 7.8125 48.5 C10 49 10 49 12 51 C12.83166106 55.26226296 11.77999604 57.81840664 9.5625 61.375 C1.3503146 72.76486087 -11.14919086 80.4663154 -25 83 C-33.74570805 83.83735503 -42.67244754 83.36587414 -49.8125 77.8125 C-56.54778133 69.15285258 -58.17953 63.01201606 -58.1875 52.125 C-58.19974609 51.25230469 -58.21199219 50.37960937 -58.22460938 49.48046875 C-58.26001918 33.78212243 -49.8093374 19.88823767 -39 9 C-27.87088298 -0.57512184 -14.18265439 -8.10437393 0 0 Z " fill="#DEB226" transform="translate(577,430)"/>
<path d="M0 0 C3.80536598 2.32458226 6.32093424 5.32936847 8.3125 9.3125 C9.48321052 19.88234353 6.80846072 27.09640969 0.375 35.375 C-7.86837446 44.22634567 -19.7062341 49.70550399 -30.6875 54.3125 C-31.57308594 54.69535156 -32.45867188 55.07820312 -33.37109375 55.47265625 C-35.6875 56.3125 -35.6875 56.3125 -38.6875 56.3125 C-38.41421902 59.86515269 -38.07579012 62.62416751 -36.3125 65.75 C-31.41285324 68.66645641 -25.81101656 67.89848636 -20.35546875 66.875 C-10.73127475 64.10045759 -2.72874567 57.80059215 4.2421875 50.81640625 C6.81580811 48.94688939 8.19703285 48.85494789 11.3125 49.3125 C13.3125 51.3125 13.3125 51.3125 13.67578125 54.59765625 C12.95638273 61.95408623 7.03147718 66.92125668 1.6875 71.62109375 C-11.07842217 81.43675193 -24.82353537 85.09188233 -40.6875 83.3125 C-44.0119308 82.18881441 -46.1835045 80.73679273 -48.6875 78.3125 C-50.110625 77.075 -50.110625 77.075 -51.5625 75.8125 C-58.85376097 67.23454592 -57.31233325 52.96578714 -56.6875 42.3125 C-54.74983307 28.48218005 -44.55237497 14.83248522 -33.75 6.5 C-31.74377125 5.08325575 -29.72426439 3.68498274 -27.6875 2.3125 C-27.01976562 1.83296875 -26.35203125 1.3534375 -25.6640625 0.859375 C-18.53467693 -3.56146671 -7.50588458 -3.45017209 0 0 Z " fill="#DEB227" transform="translate(871.6875,581.6875)"/>
<path d="M0 0 C1.99784062 1.48123652 2.83986412 2.5072742 3.609375 4.875 C3.86761314 8.77726516 3.5403187 11.24350921 1.22607422 14.48364258 C0.4682666 15.34111084 -0.28954102 16.1985791 -1.0703125 17.08203125 C-5.80536294 22.6612938 -9.75109859 28.48985319 -13.625 34.6875 C-14.30232178 35.75822754 -14.97964355 36.82895508 -15.67749023 37.93212891 C-17.79353659 41.28280118 -19.89821719 44.64036527 -22 48 C-22.68562012 49.0936084 -23.37124023 50.1872168 -24.07763672 51.31396484 C-27.82814221 57.29774624 -31.56688414 63.28869446 -35.29589844 69.28588867 C-37.03403562 72.05420831 -38.80754963 74.79784085 -40.58203125 77.54296875 C-44.40796728 83.53769993 -47.72234842 89.76538245 -50.9921875 96.07617188 C-53.8586403 101.44253393 -56.40126352 105.20063176 -62 108 C-65.92915446 108.53579379 -67.58265945 108.27636971 -70.92578125 106.0625 C-74.83768853 102.63306532 -76.48979095 98.35349321 -78.4375 93.625 C-79.21236567 91.81850554 -79.98841739 90.01251938 -80.765625 88.20703125 C-81.14267578 87.31967285 -81.51972656 86.43231445 -81.90820312 85.51806641 C-83.14064313 82.67562762 -84.46506738 79.88931738 -85.81884766 77.10327148 C-89.60775377 69.29224665 -92.4758776 61.301426 -95.27490234 53.09667969 C-96.42386076 49.77437165 -97.64139948 46.47917188 -98.875 43.1875 C-99.11307373 42.54901123 -99.35114746 41.91052246 -99.59643555 41.25268555 C-101.05059975 37.39375846 -102.5787461 33.57194417 -104.15625 29.76171875 C-104.52379395 28.86751221 -104.89133789 27.97330566 -105.27001953 27.05200195 C-105.9908112 25.3057623 -106.72055631 23.56318362 -107.46044922 21.82495117 C-109.27371022 17.42719591 -110.64339551 13.84740028 -110 9 C-108.20006226 6.30009338 -106.916227 4.4581135 -104 3 C-101.9765625 2.7265625 -101.9765625 2.7265625 -99.625 2.625 C-98.85414063 2.57601562 -98.08328125 2.52703125 -97.2890625 2.4765625 C-93.85099454 3.26274186 -92.97804021 5.13223602 -91 8 C-90.00490828 10.48009635 -89.15366322 12.85418518 -88.37890625 15.3984375 C-88.15226791 16.11045319 -87.92562958 16.82246887 -87.69212341 17.55606079 C-86.97195975 19.82594431 -86.26682512 22.10015808 -85.5625 24.375 C-85.09412906 25.86360575 -84.62473593 27.35189029 -84.15429688 28.83984375 C-83.45322368 31.05893476 -82.75243615 33.27810764 -82.05366516 35.4979248 C-78.39079251 47.12995193 -74.53674058 58.54286621 -69.6875 69.75 C-68.79068901 71.82602203 -67.89852065 73.90405776 -67.01171875 75.984375 C-66.43103638 77.32580566 -66.43103638 77.32580566 -65.83862305 78.69433594 C-65 81 -65 81 -65 84 C-64.34 84 -63.68 84 -63 84 C-62.61521484 82.91332031 -62.61521484 82.91332031 -62.22265625 81.8046875 C-60.93400115 78.84860328 -59.4038172 76.67525382 -57.4375 74.125 C-50.37455217 64.57296323 -44.68446927 54.26191462 -38.93481445 43.88745117 C-13.35623019 -2.22163037 -13.35623019 -2.22163037 0 0 Z " fill="#DEB227" transform="translate(617,553)"/>
<path d="M0 0 C3.54160737 0.91252226 4.97827111 2.68933477 7.16796875 5.55859375 C7.60097348 8.43822662 7.74198651 10.64499754 7.60546875 13.49609375 C7.58806641 14.23593506 7.57066406 14.97577637 7.55273438 15.73803711 C7.31839283 22.75701716 6.39503094 29.64541302 5.16796875 36.55859375 C5.51988281 35.89214844 5.87179687 35.22570312 6.234375 34.5390625 C20.7411632 7.45719941 20.7411632 7.45719941 33.16796875 3.55859375 C42.63910408 2.51066701 47.48303724 3.9384194 54.91796875 9.68359375 C60.13826847 16.35397672 60.90255308 25.8264068 62.23046875 33.99609375 C62.55426387 35.93236256 62.87848153 37.86856075 63.203125 39.8046875 C63.36055176 40.74683105 63.51797852 41.68897461 63.68017578 42.65966797 C64.18851384 45.68069204 64.69962228 48.70090829 65.2265625 51.71875 C65.46137329 53.07625366 65.46137329 53.07625366 65.70092773 54.46118164 C65.96596258 56.53542476 65.96596258 56.53542476 67.16796875 57.55859375 C69.35436328 57.63118321 71.54297264 57.64233158 73.73046875 57.62109375 C74.92800781 57.61207031 76.12554687 57.60304688 77.359375 57.59375 C78.74962891 57.57634766 78.74962891 57.57634766 80.16796875 57.55859375 C80.59101646 62.46594719 80.75223969 64.62021921 78.10546875 68.87109375 C72.96973782 73.5697412 68.07799851 75.11806954 61.23828125 74.83984375 C56.33656601 74.17395036 53.31990164 71.19620453 50.35498047 67.39135742 C45.3528019 59.66791963 44.36900059 51.28649832 43.60546875 42.30859375 C42.9565697 32.46417294 42.9565697 32.46417294 39.16796875 23.55859375 C34.64002671 23.65100073 32.09176739 24.18817797 28.79296875 27.37109375 C27.5559766 28.74159386 26.34962602 30.14010644 25.16796875 31.55859375 C24.53632813 32.30238281 23.9046875 33.04617188 23.25390625 33.8125 C14.10405281 45.30978774 6.04007438 58.59888261 -0.41064453 71.78564453 C-1.83203125 74.55859375 -1.83203125 74.55859375 -3.83203125 76.55859375 C-8.37614675 77.40670961 -11.87670091 77.1044968 -15.89453125 74.80859375 C-20.72265115 66.70981198 -17.31500041 55.44904627 -15.39453125 46.74609375 C-13.09847558 35.97328354 -11.62809756 25.77918579 -11.40234375 14.765625 C-11.09794615 6.35664131 -9.25346769 0.55485009 0 0 Z " fill="#DDB227" transform="translate(430.83203125,432.44140625)"/>
<path d="M0 0 C2.5 1.375 2.5 1.375 4 4 C5.08078094 12.1033483 2.83548346 19.69698014 0.6875 27.4375 C0.2244043 29.16323242 0.2244043 29.16323242 -0.24804688 30.92382812 C-2.69767538 40.02613195 -2.69767538 40.02613195 -3.79443359 43.55908203 C-9.45320659 62.27769772 -9.31387292 81.34681449 -8.86303711 100.69580078 C-8.79689379 103.78675628 -8.75488279 106.87736356 -8.71484375 109.96875 C-8.68478745 110.90513306 -8.65473114 111.84151611 -8.62376404 112.80627441 C-8.5748296 117.08368222 -8.5990628 119.3508882 -10.89282227 123.06445312 C-13.84016987 125.77173755 -15.52269782 126.17286104 -19.4375 126.25 C-20.61119141 126.28867187 -20.61119141 126.28867187 -21.80859375 126.328125 C-24 126 -24 126 -25.66015625 124.859375 C-29.84004358 119.05871503 -29.34839743 112.33897268 -29.3125 105.5 C-29.30686035 104.35853516 -29.3012207 103.21707031 -29.29541016 102.04101562 C-28.89715735 72.94095923 -24.7091182 42.77088608 -16.875 14.6875 C-16.64578857 13.85855225 -16.41657715 13.02960449 -16.18041992 12.17553711 C-14.83297488 7.69441003 -13.31478751 4.44125531 -10 1 C-6.7863589 -0.60682055 -3.48539659 -0.46150508 0 0 Z " fill="#DEB227" transform="translate(784,541)"/>
<path d="M0 0 C3.375 1.375 3.375 1.375 6 4 C7.11925932 10.86913243 5.39459992 17.58693562 3.625 24.1875 C-1.92757939 45.04117273 -1.92757939 45.04117273 0 66 C0.40159538 69.06359904 0.49323558 71.9440839 0 75 C-2.18159145 77.75569447 -3.87177494 79.43588747 -7 81 C-13.24259681 81.57801822 -13.24259681 81.57801822 -16.375 79.1875 C-25.23189527 67.26475637 -18.20522637 40.58104083 -16.3125 26.8125 C-16.19043182 25.87759735 -16.06836365 24.9426947 -15.94259644 23.97946167 C-15.58505162 21.28063327 -15.19799785 18.58777561 -14.80078125 15.89453125 C-14.69530975 15.08603729 -14.58983826 14.27754333 -14.48117065 13.44454956 C-13.60805664 7.89759095 -11.98904222 4.97973924 -8 1 C-5.13391871 -0.43304064 -3.18699217 -0.30644155 0 0 Z " fill="#DCB128" transform="translate(392,432)"/>
<path d="M0 0 C2.72409319 4.08613978 2.8350263 7.29469308 2 12 C-2.9808554 25.55716271 -14.18079264 42.88457417 -27.5859375 49.22265625 C-30.47113022 50.15170698 -32.12906267 49.87723085 -35 49 C-36 48 -36 48 -36.375 44.1875 C-36.28418619 37.81035257 -33.7841962 32.6394178 -31 27 C-30.5153125 26.01773437 -30.030625 25.03546875 -29.53125 24.0234375 C-24.02318355 13.79031404 -13.19991911 -3.48677108 0 0 Z " fill="#10203B" transform="translate(811,444)"/>
<path d="M0 0 C2.0625 1.9375 2.0625 1.9375 3 5 C3.05117061 11.51305972 1.24969213 16.42836192 -2.0625 21.9375 C-2.4651709 22.6277124 -2.8678418 23.3179248 -3.28271484 24.02905273 C-6.7040232 29.76903907 -10.52453908 35.02930366 -15 40 C-15.91265625 41.01707031 -15.91265625 41.01707031 -16.84375 42.0546875 C-21.09258869 46.54578454 -24.9127571 49.76700054 -31.3125 50.25 C-34 50 -34 50 -35 49 C-36.70316075 37.61315387 -31.26527072 27.00843266 -25.09765625 17.77734375 C-10.64951415 -1.35231926 -10.64951415 -1.35231926 0 0 Z " fill="#0F1F3B" transform="translate(692,597)"/>
<path d="M0 0 C2.04670452 3.38151181 1.97460265 5.4810058 1.4375 9.375 C-1.02459109 14.10979056 -4.09635269 17.45482676 -8.5625 20.375 C-11.69896678 21.19454829 -13.20584313 20.96108295 -16.5625 20.375 C-19.27518762 18.17678761 -21.00148243 15.49703513 -22.5625 12.375 C-22.73445891 8.56947453 -22.65902972 4.82011787 -20.296875 1.70703125 C-14.43404537 -3.34151649 -6.62090532 -4.19862289 0 0 Z " fill="#DFB327" transform="translate(411.5625,391.625)"/>
<path d="M0 0 C2 3 2 3 2.0625 5.625 C-0.82723602 14.80416147 -7.70252662 19.66334493 -15.75390625 24.3359375 C-19.7833664 26.40158133 -23.6351783 27.81631954 -28 29 C-25.50170022 18.03127432 -19.87862485 8.09876066 -11 1 C-7.06103948 -1.37736078 -4.48051453 -1.07864239 0 0 Z " fill="#111F3B" transform="translate(862,595)"/>
<path d="M0 0 C2 2 2 2 2.5625 5.125 C1.44703462 12.80931706 -5.41743419 17.88594248 -11.37890625 22.390625 C-16.24999867 25.3815193 -21.60061102 27.18907665 -27 29 C-26.52509737 18.0772394 -18.62790849 9.22993066 -11 2 C-6.87689613 -0.87367845 -4.9132074 -1.41937103 0 0 Z " fill="#0E1E3B" transform="translate(566,442)"/>
<path d="M0 0 C2.73685177 1.36842588 3.82088111 2.41719579 5.25 5.125 C5.55859375 7.5546875 5.55859375 7.5546875 5.25 10.125 C3.640625 11.9609375 3.640625 11.9609375 1.5 13.5 C0.80390625 14.02335937 0.1078125 14.54671875 -0.609375 15.0859375 C-2.75 16.125 -2.75 16.125 -4.87109375 15.93359375 C-7.80937378 14.66909486 -9.0758258 12.79127742 -10.75 10.125 C-10.41289801 6.67142455 -9.06272028 5.05766581 -6.5 2.8125 C-3.20531578 0.14569617 -3.20531578 0.14569617 0 0 Z " fill="#EFBE28" transform="translate(66.75,473.875)"/>
<path d="M0 0 C3.07532355 1.5792202 4.52880268 3.23753905 6.3125 6.1875 C6.06576262 8.70422128 5.61429814 9.87191001 3.859375 11.70703125 C-0.95381816 15.17043763 -0.95381816 15.17043763 -4.375 15.25 C-7.20876583 13.94799948 -8.82425763 12.69571088 -10.6875 10.1875 C-10.33822159 6.73662933 -8.99927855 5.11934077 -6.4375 2.875 C-3.14129241 0.21915994 -3.14129241 0.21915994 0 0 Z " fill="#EBBD2A" transform="translate(144.6875,410.8125)"/>
<path d="M0 0 C2.36827059 1.15030286 3.70446727 1.87697808 5.1875 4.0625 C5.49609375 6.4296875 5.49609375 6.4296875 5.1875 9.0625 C3.578125 11.1171875 3.578125 11.1171875 1.4375 12.9375 C0.74140625 13.55367188 0.0453125 14.16984375 -0.671875 14.8046875 C-2.8125 16.0625 -2.8125 16.0625 -4.9375 15.90234375 C-7.83181615 14.60593131 -9.10667564 12.68215884 -10.8125 10.0625 C-10.8125 6.0625 -10.8125 6.0625 -9.23828125 4.32421875 C-3.53888399 0.07864187 -3.53888399 0.07864187 0 0 Z " fill="#EDBE2A" transform="translate(170.8125,389.9375)"/>
<path d="M0 0 C2.74358439 1.37179219 3.87463424 2.37426848 5.25 5.125 C5.408408 8.13475198 4.74170672 9.57038563 2.75390625 11.8125 C-0.6331871 14.95921898 -0.6331871 14.95921898 -2.75 16.125 C-5.95959221 15.83048686 -6.71258717 15.16241283 -9.0625 12.8125 C-10.75 10.125 -10.75 10.125 -10.55859375 8.1640625 C-8.82089539 3.78204056 -4.72131079 0.21460504 0 0 Z " fill="#EEBE28" transform="translate(92.75,452.875)"/>
<path d="M0 0 C3.22500285 0.76381646 4.4770361 1.86155137 6.375 4.5625 C6.5625 6.9375 6.5625 6.9375 5.375 9.5625 C3.27819418 11.92140655 1.14892805 14.03482948 -1.625 15.5625 C-4.83459221 15.26798686 -5.58758717 14.59991283 -7.9375 12.25 C-9.625 9.5625 -9.625 9.5625 -9.75 7.5625 C-7.55243304 3.65571429 -4.40116045 0.94310581 0 0 Z " fill="#EEBF29" transform="translate(117.625,432.4375)"/>
<path d="M0 0 C0.99 0.66 1.98 1.32 3 2 C2.74327938 5.7652358 2.40674134 7.55839511 -0.1875 10.375 C-3.46120206 12.2664723 -5.27844265 12.49620765 -9 12 C-11 10 -11 10 -11.375 7.125 C-11 4 -11 4 -9.4375 1.625 C-6.12030578 -0.58646281 -3.91054241 -0.42660463 0 0 Z " fill="#DEB52D" transform="translate(911,646)"/>
<path d="M0 0 C0.99 0.66 1.98 1.32 3 2 C2.41129032 7.2983871 2.41129032 7.2983871 0.9375 9.8125 C-2.28225297 11.78589698 -5.2408046 11.8209907 -9 12 C-11 10 -11 10 -11.375 7.125 C-11 4 -11 4 -9.4375 1.625 C-6.12030578 -0.58646281 -3.91054241 -0.42660463 0 0 Z " fill="#DEB52E" transform="translate(972,645)"/>
<path d="M0 0 C0.90492188 0.02320313 1.80984375 0.04640625 2.7421875 0.0703125 C4.10730469 0.09738281 4.10730469 0.09738281 5.5 0.125 C6.19867187 0.14820313 6.89734375 0.17140625 7.6171875 0.1953125 C8.3671875 2.3828125 8.3671875 2.3828125 8.6171875 5.1953125 C6.84055228 7.89089698 5.52434305 9.74173473 2.6171875 11.1953125 C-0.3828125 11.3828125 -0.3828125 11.3828125 -3.3828125 11.1953125 C-4.0428125 10.5353125 -4.7028125 9.8753125 -5.3828125 9.1953125 C-4.75383723 0.38965879 -4.75383723 0.38965879 0 0 Z " fill="#E1B429" transform="translate(935.3828125,645.8046875)"/>
<path d="M0 0 C0.99 0.66 1.98 1.32 3 2 C1.43910974 3.41844009 -0.1237889 4.83467025 -1.6875 6.25 C-2.55761719 7.03890625 -3.42773438 7.8278125 -4.32421875 8.640625 C-6.09537453 10.20234484 -7.91139715 11.71472047 -9.76953125 13.171875 C-12.07327915 14.80633073 -12.07327915 14.80633073 -13 17 C-13.66 17 -14.32 17 -15 17 C-13.44552062 13.3979537 -11.252552 10.83129897 -8.625 7.9375 C-7.85414063 7.08027344 -7.08328125 6.22304688 -6.2890625 5.33984375 C-4.29415514 3.30068076 -2.33480265 1.62583289 0 0 Z " fill="#19273F" transform="translate(802,444)"/>
<path d="M0 0 C1.2433165 3.64086451 0.80879753 6.53136133 0.22265625 10.296875 C-0.05288086 12.10478516 -0.05288086 12.10478516 -0.33398438 13.94921875 C-0.53314453 15.20347656 -0.73230469 16.45773437 -0.9375 17.75 C-1.13279297 19.01972656 -1.32808594 20.28945313 -1.52929688 21.59765625 C-2.01255218 24.73292236 -2.50304652 27.8668809 -3 31 C-3.66 31 -4.32 31 -5 31 C-4.6182357 24.04925684 -3.79336276 17.27106507 -2.5 10.4375 C-2.36940186 9.74720703 -2.23880371 9.05691406 -2.10424805 8.34570312 C-1.54606586 5.48656601 -0.92237936 2.76713808 0 0 Z " fill="#1C2740" transform="translate(780,582)"/>
<path d="M0 0 C0.33 0 0.66 0 1 0 C1.3125 2.1875 1.3125 2.1875 1 5 C-0.66666667 6.66666667 -2.33333333 8.33333333 -4 10 C-5.85028672 13.25050369 -7.44781387 16.59840061 -9 20 C-9.66 20 -10.32 20 -11 20 C-9.88162875 12.45436264 -5.03726941 5.59696601 0 0 Z " fill="#C8AB39" transform="translate(641,444)"/>
<path d="M0 0 C0.66 0 1.32 0 2 0 C2.94847342 1.38883608 3.88924766 2.78371987 4.78515625 4.20703125 C6.55599196 6.82057977 8.63471052 9.12863663 10.73046875 11.484375 C12 13 12 13 13 15 C14.98 15 16.96 15 19 15 C17.25 16.5625 17.25 16.5625 15 18 C12.58207991 17.73034125 11.33286016 17.30721283 9.53613281 15.64892578 C9.09624023 15.0867334 8.65634766 14.52454102 8.203125 13.9453125 C7.71972656 13.33042969 7.23632812 12.71554687 6.73828125 12.08203125 C6.24714844 11.43621094 5.75601563 10.79039062 5.25 10.125 C4.74339844 9.48691406 4.23679688 8.84882812 3.71484375 8.19140625 C0 3.39515246 0 3.39515246 0 0 Z " fill="#E9C431" transform="translate(211,696)"/>
<path d="M0 0 C1.26332183 4.21107278 1.00441956 6.5456709 -0.9375 10.375 C-1.60974879 11.59188424 -2.29234251 12.8033603 -3 14 C-3.66 14 -4.32 14 -5 14 C-5.15569823 4.81380417 -5.15569823 4.81380417 -4 1 C-2 0 -2 0 0 0 Z " fill="#17233E" transform="translate(682,466)"/>
<path d="M0 0 C0.66 0.33 1.32 0.66 2 1 C1.175 1.86625 0.35 2.7325 -0.5 3.625 C-5.26135401 9.12675595 -8.5274512 15.64541197 -12 22 C-13 19 -13 19 -12.00390625 16.51953125 C-11.52824219 15.62621094 -11.05257812 14.73289062 -10.5625 13.8125 C-10.08941406 12.91144531 -9.61632812 12.01039063 -9.12890625 11.08203125 C-8.75636719 10.39496094 -8.38382813 9.70789063 -8 9 C-7.34 9 -6.68 9 -6 9 C-5.938125 8.443125 -5.87625 7.88625 -5.8125 7.3125 C-4.66626128 4.05012827 -2.50609803 2.31332126 0 0 Z " fill="#E6BA28" transform="translate(711,450)"/>
<path d="M0 0 C0.33 0 0.66 0 1 0 C1.53537872 3.0601404 2.0506887 6.12333716 2.5625 9.1875 C2.71396484 10.05181641 2.86542969 10.91613281 3.02148438 11.80664062 C4.32964778 19.74688824 4.32964778 19.74688824 3 24 C-0.4430565 18.83541525 -0.13280841 13.73943138 -0.0625 7.6875 C-0.05798828 6.94693359 -0.05347656 6.20636719 -0.04882812 5.44335938 C-0.03712175 3.62887101 -0.01918898 1.81442466 0 0 Z " fill="#1A2844" transform="translate(715,468)"/>
<path d="M0 0 C0.33 0 0.66 0 1 0 C1.22236782 3.06206505 1.42834898 6.12376646 1.625 9.1875 C1.68945312 10.05181641 1.75390625 10.91613281 1.8203125 11.80664062 C2.10046459 16.37662165 2.2531859 19.846226 0 24 C-0.33 24 -0.66 24 -1 24 C-1.02893932 20.37501666 -1.04677792 16.75006287 -1.0625 13.125 C-1.07087891 12.09246094 -1.07925781 11.05992187 -1.08789062 9.99609375 C-1.09111328 9.00996094 -1.09433594 8.02382813 -1.09765625 7.0078125 C-1.10289307 6.09660645 -1.10812988 5.18540039 -1.11352539 4.24658203 C-1 2 -1 2 0 0 Z " fill="#E8BD2A" transform="translate(421,438)"/>
<path d="M0 0 C-1.05564331 2.55113801 -1.6597212 3.79377042 -4.0625 5.25 C-7.13283082 8.02320203 -6.73526099 10.96273011 -7 15 C-6.34 15.33 -5.68 15.66 -5 16 C-5.66 16.66 -6.32 17.32 -7 18 C-9.22893215 14.1603161 -9.26140336 11.5181844 -8.68359375 7.1953125 C-7.48340763 3.3410005 -4.25749603 0 0 0 Z " fill="#C7AC3B" transform="translate(398,390)"/>
<path d="M0 0 C1.98 0 3.96 0 6 0 C6.49230769 7.38461538 6.49230769 7.38461538 4 10.5 C3.34 10.995 2.68 11.49 2 12 C1.34 11.34 0.68 10.68 0 10 C0.99 9.67 1.98 9.34 3 9 C3.6814823 7.10820797 3.6814823 7.10820797 4 5 C4.33 4.01 4.66 3.02 5 2 C3.02 2 1.04 2 -1 2 C-0.67 1.34 -0.34 0.68 0 0 Z " fill="#E6BC29" transform="translate(505,490)"/>
<path d="M0 0 C0.99 0 1.98 0 3 0 C3 0.99 3 1.98 3 3 C2.34 3 1.68 3 1 3 C0.87882813 3.60328125 0.75765625 4.2065625 0.6328125 4.828125 C0.46523437 5.62734375 0.29765625 6.4265625 0.125 7.25 C-0.11863281 8.43335938 -0.11863281 8.43335938 -0.3671875 9.640625 C-0.99150075 11.96831144 -1.84838542 13.89031952 -3 16 C-3.33266291 9.79029227 -2.45029331 5.71735105 0 0 Z " fill="#293648" transform="translate(252,470)"/>
<path d="M0 0 C0.33 0 0.66 0 1 0 C1.66268329 7.12384541 -0.74611936 13.30879185 -3 20 C-3.33 20 -3.66 20 -4 20 C-4.25816476 12.64230431 -2.88911647 6.81006026 0 0 Z " fill="#C3A838" transform="translate(523,460)"/>
<path d="M0 0 C1.485 0.99 1.485 0.99 3 2 C2.67 2.66 2.34 3.32 2 4 C2.99 4 3.98 4 5 4 C5 4.99 5 5.98 5 7 C6.65 7 8.3 7 10 7 C10 7.66 10 8.32 10 9 C10.66 9.33 11.32 9.66 12 10 C10.3125 10.75 10.3125 10.75 8 11 C5.25 9.1875 5.25 9.1875 3 7 C3 6.34 3 5.68 3 5 C2.34 5 1.68 5 1 5 C0.67 3.35 0.34 1.7 0 0 Z " fill="#CDAE33" transform="translate(758,498)"/>
<path d="M0 0 C0.9075 0.350625 1.815 0.70125 2.75 1.0625 C5.87758436 1.96468779 7.05208081 2.13381507 10 1 C7.7991151 3.47859908 5.93627031 4.61210366 2.8125 5.6875 C1.73935547 6.06455078 1.73935547 6.06455078 0.64453125 6.44921875 C0.10183594 6.63097656 -0.44085937 6.81273437 -1 7 C-0.67 4.69 -0.34 2.38 0 0 Z " fill="#18243C" transform="translate(540,464)"/>
<path d="M0 0 C0.66 0 1.32 0 2 0 C2.84378975 2.05824429 3.67463622 4.12179786 4.5 6.1875 C4.9640625 7.33605469 5.428125 8.48460937 5.90625 9.66796875 C6.90805652 12.71990077 7.23870804 14.83115072 7 18 C4.50752478 14.97903433 3.12043668 12.12076995 1.8125 8.4375 C1.46832031 7.48746094 1.12414062 6.53742187 0.76953125 5.55859375 C0 3 0 3 0 0 Z " fill="#E1BB2F" transform="translate(508,567)"/>
<path d="M0 0 C0.6875 1.8125 0.6875 1.8125 1 4 C-0.1875 5.625 -0.1875 5.625 -2 7 C-4.26171875 7.29296875 -4.26171875 7.29296875 -6.6875 7.1875 C-7.49574219 7.16042969 -8.30398438 7.13335937 -9.13671875 7.10546875 C-9.75160156 7.07066406 -10.36648438 7.03585937 -11 7 C-11 6.34 -11 5.68 -11 5 C-9.01432292 4.51171875 -7.02864583 4.0234375 -5.04296875 3.53515625 C-3.34316798 3.08989295 -1.66698046 2.55566015 0 2 C0 1.34 0 0.68 0 0 Z " fill="#E7BB27" transform="translate(429,502)"/>
<path d="M0 0 C0.66 0.33 1.32 0.66 2 1 C-1.84147426 6.26267902 -4.51152543 8.83207458 -11 10 C-7.50640535 6.40365256 -3.88901869 3.16548033 0 0 Z " fill="#192944" transform="translate(356,645)"/>
<path d="M0 0 C4.95839497 4.79844675 4.95839497 4.79844675 5.09765625 8.8203125 C5.08605469 9.91085937 5.07445312 11.00140625 5.0625 12.125 C5.05347656 13.22070312 5.04445313 14.31640625 5.03515625 15.4453125 C5.02355469 16.28835938 5.01195312 17.13140625 5 18 C4.67 18 4.34 18 4 18 C4 14.7 4 11.4 4 8 C3.01 7.67 2.02 7.34 1 7 C0.67 4.69 0.34 2.38 0 0 Z " fill="#B49F3C" transform="translate(352,408)"/>
<path d="M0 0 C0.33 0.99 0.66 1.98 1 3 C-2.16363636 7.58181818 -2.16363636 7.58181818 -5 9 C-6.99960012 9.039992 -9.00047242 9.04346799 -11 9 C-11.33 8.34 -11.66 7.68 -12 7 C-10.948125 6.95875 -9.89625 6.9175 -8.8125 6.875 C-3.81527945 5.72809692 -2.87714602 4.09775342 0 0 Z " fill="#EBBF2C" transform="translate(943,648)"/>
<path d="M0 0 C3.45524469 2.30349646 4.04969447 3.76206547 5.6875 7.5 C6.12449219 8.4796875 6.56148437 9.459375 7.01171875 10.46875 C8 13 8 13 8 15 C5 14 5 14 3.61328125 11.34765625 C3.18402344 10.26355469 2.75476563 9.17945313 2.3125 8.0625 C1.87550781 6.98097656 1.43851563 5.89945313 0.98828125 4.78515625 C0 2 0 2 0 0 Z " fill="#1C283F" transform="translate(532,634)"/>
<path d="M0 0 C0.33 0.99 0.66 1.98 1 3 C-0.8125 6.1875 -0.8125 6.1875 -3 9 C-3.66 9 -4.32 9 -5 9 C-5.33 9.99 -5.66 10.98 -6 12 C-6.66 12 -7.32 12 -8 12 C-6.59023295 8.96147295 -4.91129772 6.4060405 -2.875 3.75 C-2.06675781 2.69039062 -2.06675781 2.69039062 -1.2421875 1.609375 C-0.83226562 1.07828125 -0.42234375 0.5471875 0 0 Z " fill="#1D2B43" transform="translate(618,566)"/>
<path d="M0 0 C1.258125 -0.04125 2.51625 -0.0825 3.8125 -0.125 C4.52019531 -0.14820313 5.22789062 -0.17140625 5.95703125 -0.1953125 C8 0 8 0 11 2 C11 2.66 11 3.32 11 4 C10.01 4.33 9.02 4.66 8 5 C8 4.01 8 3.02 8 2 C4.7 2.66 1.4 3.32 -2 4 C-1.34 2.68 -0.68 1.36 0 0 Z " fill="#D2AF2F" transform="translate(776,541)"/>
<path d="M0 0 C0.66 0.33 1.32 0.66 2 1 C1.9175 2.051875 1.835 3.10375 1.75 4.1875 C2.03525487 8.53763669 3.02449969 9.9315153 6 13 C3.83125748 12.49396008 2.00032373 12.00016187 0 11 C-1.16461426 7.50615721 -1.13568319 4.66344611 -1 1 C-0.67 0.67 -0.34 0.34 0 0 Z " fill="#CFAD30" transform="translate(832,637)"/>
<path d="M0 0 C0.99 0 1.98 0 3 0 C2.23757784 3.61055091 0.87526626 6.85834625 -0.5625 10.25 C-1.01753906 11.32765625 -1.47257812 12.4053125 -1.94140625 13.515625 C-2.29074219 14.33546875 -2.64007813 15.1553125 -3 16 C-3.33 16 -3.66 16 -4 16 C-3.39891424 10.34979382 -1.92471317 5.33835539 0 0 Z " fill="#F7CB29" transform="translate(358,599)"/>
<path d="M0 0 C0.66 0.99 1.32 1.98 2 3 C1.01 4.98 0.02 6.96 -1 9 C-1.66 9 -2.32 9 -3 9 C-3.33 9.66 -3.66 10.32 -4 11 C-5 8 -5 8 -4.00390625 5.95703125 C-3.52824219 5.24933594 -3.05257813 4.54164063 -2.5625 3.8125 C-2.08941406 3.09707031 -1.61632812 2.38164062 -1.12890625 1.64453125 C-0.75636719 1.10183594 -0.38382812 0.55914062 0 0 Z " fill="#D1AF34" transform="translate(445,453)"/>
<path d="M0 0 C0.556875 0.226875 1.11375 0.45375 1.6875 0.6875 C0.4809375 1.0896875 0.4809375 1.0896875 -0.75 1.5 C-1.595625 1.891875 -2.44125 2.28375 -3.3125 2.6875 C-3.6425 3.6775 -3.9725 4.6675 -4.3125 5.6875 C-6.2925 5.6875 -8.2725 5.6875 -10.3125 5.6875 C-7.50687824 2.58654963 -4.3951302 -0.59393651 0 0 Z " fill="#E6BB27" transform="translate(850.3125,617.3125)"/>
<path d="M0 0 C0.33 0 0.66 0 1 0 C1 1.65 1 3.3 1 5 C-2.43112739 7.11146301 -5.03105481 7.08444564 -9 7 C-9.99 7.33 -10.98 7.66 -12 8 C-12 7.01 -12 6.02 -12 5 C-11.38511719 4.97421875 -10.77023437 4.9484375 -10.13671875 4.921875 C-5.02144596 4.73438997 -5.02144596 4.73438997 -1 1.9375 C-0.67 1.298125 -0.34 0.65875 0 0 Z " fill="#293747" transform="translate(430,504)"/>
<path d="M0 0 C0.66 0 1.32 0 2 0 C2 0.66 2 1.32 2 2 C5.3 2.33 8.6 2.66 12 3 C11.67 3.66 11.34 4.32 11 5 C3.5340751 5.36717663 3.5340751 5.36717663 1 3.625 C0 2 0 2 0 0 Z " fill="#D4B130" transform="translate(665,498)"/>
<path d="M0 0 C0.33 0 0.66 0 1 0 C1.28100502 7.16562789 0.20443195 13.94546999 -1 21 C-1.33 21 -1.66 21 -2 21 C-2.33 18.36 -2.66 15.72 -3 13 C-2.34 13 -1.68 13 -1 13 C-0.67 8.71 -0.34 4.42 0 0 Z " fill="#465451" transform="translate(610,434)"/>
<path d="M0 0 C0.33 0 0.66 0 1 0 C0.67 6.93 0.34 13.86 0 21 C-0.33 21 -0.66 21 -1 21 C-1.33 15.72 -1.66 10.44 -2 5 C-1.67 5 -1.34 5 -1 5 C-0.67 3.35 -0.34 1.7 0 0 Z " fill="#435051" transform="translate(756,611)"/>
<path d="M0 0 C1.26823485 3.65393537 0.75715321 6.49070026 0.0625 10.25 C-0.13214844 11.32765625 -0.32679688 12.4053125 -0.52734375 13.515625 C-0.68332031 14.33546875 -0.83929687 15.1553125 -1 16 C-1.66 15.67 -2.32 15.34 -3 15 C-2.44854729 9.76119922 -1.57077907 5.02649303 0 0 Z " fill="#333B41" transform="translate(780,582)"/>
<path d="M0 0 C0.66 0 1.32 0 2 0 C2.33 0.99 2.66 1.98 3 3 C1.85546875 5.26171875 1.85546875 5.26171875 0.1875 7.6875 C-0.35519531 8.49574219 -0.89789062 9.30398438 -1.45703125 10.13671875 C-1.96621094 10.75160156 -2.47539063 11.36648438 -3 12 C-3.66 12 -4.32 12 -5 12 C-3.68938409 7.76570244 -2.05643741 3.92592596 0 0 Z " fill="#18223E" transform="translate(700,469)"/>
<path d="M0 0 C2.10353495 -0.0810206 4.20795952 -0.13919907 6.3125 -0.1875 C7.48425781 -0.22230469 8.65601563 -0.25710938 9.86328125 -0.29296875 C13 0 13 0 14.91796875 1.51171875 C15.27503906 2.00285156 15.63210938 2.49398438 16 3 C15.67 3.66 15.34 4.32 15 5 C14.01 4.525625 13.02 4.05125 12 3.5625 C8.00810505 1.83186252 4.31885418 1.37884686 0 1 C0 0.67 0 0.34 0 0 Z " fill="#D2B034" transform="translate(653,433)"/>
<path d="M0 0 C0.66 0.33 1.32 0.66 2 1 C-1.96 6.94 -1.96 6.94 -6 13 C-7 10 -7 10 -6.0625 7.8125 C-5.711875 7.214375 -5.36125 6.61625 -5 6 C-4.34 6 -3.68 6 -3 6 C-2.814375 5.071875 -2.814375 5.071875 -2.625 4.125 C-2 2 -2 2 0 0 Z " fill="#E5BC2B" transform="translate(787,457)"/>
<path d="M0 0 C1.22589844 0.01353516 1.22589844 0.01353516 2.4765625 0.02734375 C3.41628906 0.04474609 3.41628906 0.04474609 4.375 0.0625 C4.375 0.7225 4.375 1.3825 4.375 2.0625 C0.415 2.7225 -3.545 3.3825 -7.625 4.0625 C-7.295 3.0725 -6.965 2.0825 -6.625 1.0625 C-4.21954362 -0.14022819 -2.67503047 -0.03821472 0 0 Z " fill="#CCAD34" transform="translate(714.625,432.9375)"/>
<path d="M0 0 C0.33 0.66 0.66 1.32 1 2 C0.06553465 4.03144641 -0.93224776 6.03533587 -2 8 C-2.66 8 -3.32 8 -4 8 C-4.33 8.99 -4.66 9.98 -5 11 C-5.99 10.67 -6.98 10.34 -8 10 C-7.34 10 -6.68 10 -6 10 C-5.7525 9.278125 -5.505 8.55625 -5.25 7.8125 C-3.89016326 4.75286734 -2.17082246 2.5326262 0 0 Z " fill="#C6AA35" transform="translate(560,627)"/>
<path d="M0 0 C1 4 1 4 -0.3125 6.25 C-1.1478125 7.11625 -1.1478125 7.11625 -2 8 C-2.66 8 -3.32 8 -4 8 C-4 8.66 -4 9.32 -4 10 C-4.99 9.67 -5.98 9.34 -7 9 C-4.69 6.03 -2.38 3.06 0 0 Z " fill="#D4B031" transform="translate(658,600)"/>
<path d="M0 0 C-0.34879632 3.25543229 -1.02133261 4.01873107 -3.5625 6.25 C-4.366875 6.8275 -5.17125 7.405 -6 8 C-6.33 7.01 -6.66 6.02 -7 5 C-2.25 0 -2.25 0 0 0 Z " fill="#1A283F" transform="translate(580,461)"/>
<path d="M0 0 C0.93423645 3.01031744 1.04449911 3.86650268 0 7 C-0.66 7 -1.32 7 -2 7 C-2.33 9.31 -2.66 11.62 -3 14 C-3.33 14 -3.66 14 -4 14 C-3.66009167 8.62007164 -3.31442207 4.46726453 0 0 Z " fill="#EBBF25" transform="translate(264,460)"/>
<path d="M0 0 C2.97 0.33 5.94 0.66 9 1 C7.25 3.0625 7.25 3.0625 5 5 C2.75 4.75 2.75 4.75 1 4 C0.67 2.68 0.34 1.36 0 0 Z " fill="#DFB930" transform="translate(85,464)"/>
<path d="M0 0 C0.99 0 1.98 0 3 0 C3.33 2.64 3.66 5.28 4 8 C2 5 2 5 2 3 C0.68 3.33 -0.64 3.66 -2 4 C-2 4.66 -2 5.32 -2 6 C-2.66 5.67 -3.32 5.34 -4 5 C-2.1875 2.5 -2.1875 2.5 0 0 Z " fill="#2D3845" transform="translate(711,452)"/>
<path d="M0 0 C0.66 0.33 1.32 0.66 2 1 C1.67 1.99 1.34 2.98 1 4 C-0.65204456 4.70211894 -2.31923769 5.36971413 -4 6 C-4.33 6.66 -4.66 7.32 -5 8 C-5.66 7.34 -6.32 6.68 -7 6 C-4.69 4.02 -2.38 2.04 0 0 Z " fill="#D2AE31" transform="translate(543,435)"/>
<path d="M0 0 C1.65322266 0.01740234 1.65322266 0.01740234 3.33984375 0.03515625 C4.99693359 0.04869141 4.99693359 0.04869141 6.6875 0.0625 C7.54214844 0.07410156 8.39679687 0.08570313 9.27734375 0.09765625 C9.27734375 0.42765625 9.27734375 0.75765625 9.27734375 1.09765625 C6.30734375 1.09765625 3.33734375 1.09765625 0.27734375 1.09765625 C0.27734375 1.75765625 0.27734375 2.41765625 0.27734375 3.09765625 C-2.36265625 3.09765625 -5.00265625 3.09765625 -7.72265625 3.09765625 C-7.08328125 2.78828125 -6.44390625 2.47890625 -5.78515625 2.16015625 C-1.71104522 0.06137178 -1.71104522 0.06137178 0 0 Z " fill="#B09E40" transform="translate(560.72265625,426.90234375)"/>
<path d="M0 0 C0.66 0 1.32 0 2 0 C0.50958227 3.79379058 -1.69062512 5.68343758 -5 8 C-5.66 8 -6.32 8 -7 8 C-7 7.01 -7 6.02 -7 5 C-5.68 4.67 -4.36 4.34 -3 4 C-3 3.34 -3 2.68 -3 2 C-2.01 2 -1.02 2 0 2 C0 1.34 0 0.68 0 0 Z " fill="#D3B132" transform="translate(680,649)"/>
<path d="M0 0 C0.33 0.99 0.66 1.98 1 3 C-0.21484375 5.26171875 -0.21484375 5.26171875 -1.9375 7.6875 C-2.50339844 8.49574219 -3.06929687 9.30398438 -3.65234375 10.13671875 C-4.09707031 10.75160156 -4.54179688 11.36648438 -5 12 C-5.33 11.34 -5.66 10.68 -6 10 C-5.0625 7.375 -5.0625 7.375 -4 5 C-3.34 5 -2.68 5 -2 5 C-1.855625 4.360625 -1.71125 3.72125 -1.5625 3.0625 C-1 1 -1 1 0 0 Z " fill="#E5BC2B" transform="translate(589,606)"/>
<path d="M0 0 C11.70615034 -0.55353075 11.70615034 -0.55353075 16 3 C15.34 3.66 14.68 4.32 14 5 C13.360625 4.525625 12.72125 4.05125 12.0625 3.5625 C8.07818481 1.52968613 4.41505926 1.2789471 0 1 C0 0.67 0 0.34 0 0 Z " fill="#EFC225" transform="translate(687,582)"/>
<path d="M0 0 C0.66 0 1.32 0 2 0 C3.5078125 1.96875 3.5078125 1.96875 5.125 4.5 C5.66382813 5.3353125 6.20265625 6.170625 6.7578125 7.03125 C7.16773438 7.6809375 7.57765625 8.330625 8 9 C7.01 9 6.02 9 5 9 C0 3.76744186 0 3.76744186 0 0 Z " fill="#132341" transform="translate(233,438)"/>
<path d="M0 0 C3.14624993 -0.26218749 4.61837017 -0.24754367 7.3125 1.5 C8.1478125 2.2425 8.1478125 2.2425 9 3 C7.35 3.66 5.7 4.32 4 5 C2.68 3.35 1.36 1.7 0 0 Z " fill="#EAC330" transform="translate(258,715)"/>
<path d="M0 0 C0.66 0 1.32 0 2 0 C2.33 1.32 2.66 2.64 3 4 C3.66 4 4.32 4 5 4 C5 4.66 5 5.32 5 6 C5.99 6.33 6.98 6.66 8 7 C8 7.66 8 8.32 8 9 C4.63704165 7.55873214 2.37072898 5.79407345 0 3 C0 2.01 0 1.02 0 0 Z " fill="#E2BA2D" transform="translate(819,653)"/>
<path d="M0 0 C0.33 0 0.66 0 1 0 C1.33 1.98 1.66 3.96 2 6 C4.64 6 7.28 6 10 6 C9.01 7.485 9.01 7.485 8 9 C5.36 8.67 2.72 8.34 0 8 C-1.09658936 4.71023192 -0.79953138 3.28696233 0 0 Z " fill="#AE9A3E" transform="translate(656,640)"/>
<path d="M0 0 C0 3 0 3 -1.3125 4.38671875 C-2.875 5.59114583 -4.4375 6.79557292 -6 8 C-6.33 7.01 -6.66 6.02 -7 5 C-6.01 5 -5.02 5 -4 5 C-4 3.68 -4 2.36 -4 1 C-2.68 0.67 -1.36 0.34 0 0 Z " fill="#E7BB28" transform="translate(679,599)"/>
<path d="M0 0 C0.66 0.33 1.32 0.66 2 1 C0.8125 3.4375 0.8125 3.4375 -1 6 C-3.6875 6.8125 -3.6875 6.8125 -6 7 C-4.02 4.69 -2.04 2.38 0 0 Z " fill="#D0B03A" transform="translate(292,419)"/>
<path d="M0 0 C3.375 -0.125 3.375 -0.125 7 0 C7.66 0.66 8.32 1.32 9 2 C5.7 2.33 2.4 2.66 -1 3 C-0.67 2.01 -0.34 1.02 0 0 Z " fill="#D3B339" transform="translate(965,645)"/>
<path d="M0 0 C3.3 0 6.6 0 10 0 C10.33 2.31 10.66 4.62 11 7 C10.01 7.33 9.02 7.66 8 8 C8 6.02 8 4.04 8 2 C5.36 1.67 2.72 1.34 0 1 C0 0.67 0 0.34 0 0 Z " fill="#3A484C" transform="translate(935,645)"/>
<path d="M0 0 C2.16866801 2.16866801 3.45460528 4.35995069 5 7 C5.99 8.485 5.99 8.485 7 10 C6.01 10 5.02 10 4 10 C1.40311527 7.40311527 0.07941399 5.89340735 -0.25 2.1875 C-0.1675 1.465625 -0.085 0.74375 0 0 Z " fill="#202D45" transform="translate(816,650)"/>
<path d="M0 0 C0.66 0 1.32 0 2 0 C3.05771739 1.63064764 4.05273046 3.30280873 5 5 C5.99 6.485 5.99 6.485 7 8 C6.01 8 5.02 8 4 8 C2.61328125 6.46875 2.61328125 6.46875 1.3125 4.5 C0.87550781 3.8503125 0.43851563 3.200625 -0.01171875 2.53125 C-0.50091797 1.77328125 -0.50091797 1.77328125 -1 1 C-0.67 0.67 -0.34 0.34 0 0 Z " fill="#F0C72F" transform="translate(160,633)"/>
<path d="M0 0 C0.33 0.66 0.66 1.32 1 2 C0.22265625 3.9453125 0.22265625 3.9453125 -0.9375 6.125 C-1.31777344 6.84945312 -1.69804688 7.57390625 -2.08984375 8.3203125 C-2.39019531 8.87460937 -2.69054687 9.42890625 -3 10 C-4.0625 8.125 -4.0625 8.125 -5 6 C-3.74821404 3.49642808 -2.00018842 1.93566621 0 0 Z " fill="#E7BD27" transform="translate(838,610)"/>
<path d="M0 0 C0.33 0 0.66 0 1 0 C1.37211538 7.56634615 1.37211538 7.56634615 -0.51171875 9.76171875 C-1.00285156 10.17035156 -1.49398437 10.57898438 -2 11 C-1.85892253 9.54119891 -1.71197585 8.08296449 -1.5625 6.625 C-1.48128906 5.81289063 -1.40007813 5.00078125 -1.31640625 4.1640625 C-1 2 -1 2 0 0 Z " fill="#E5BA29" transform="translate(775,599)"/>
<path d="M0 0 C0.66 0.33 1.32 0.66 2 1 C0.60667426 4.36720387 -0.9789286 5.9859524 -4 8 C-4.66 7.67 -5.32 7.34 -6 7 C-4.02 4.69 -2.04 2.38 0 0 Z " fill="#CAAC37" transform="translate(607,554)"/>
<path d="M0 0 C0.33 0.66 0.66 1.32 1 2 C0.22265625 3.9453125 0.22265625 3.9453125 -0.9375 6.125 C-1.31777344 6.84945313 -1.69804688 7.57390625 -2.08984375 8.3203125 C-2.39019531 8.87460937 -2.69054687 9.42890625 -3 10 C-3.66 10 -4.32 10 -5 10 C-4.49701212 5.59885603 -2.91227269 3.28804981 0 0 Z " fill="#E9BE29" transform="translate(695,477)"/>
<path d="M0 0 C0.33 0.66 0.66 1.32 1 2 C0.06553465 4.03144641 -0.93224776 6.03533587 -2 8 C-2.66 8 -3.32 8 -4 8 C-3.50168276 4.31245243 -2.89932357 2.39509338 0 0 Z " fill="#D0AF31" transform="translate(634,456)"/>
<path d="M0 0 C0.99 0.33 1.98 0.66 3 1 C2.01 2.32 1.02 3.64 0 5 C-1.32 4.67 -2.64 4.34 -4 4 C-2.68 2.68 -1.36 1.36 0 0 Z " fill="#1A2840" transform="translate(304,430)"/>
<path d="M0 0 C-3.44450737 2.29633824 -5.93812283 2.54016485 -10 3 C-6.46873184 -0.69178035 -5.02635024 -1.19045137 0 0 Z " fill="#1C2A3F" transform="translate(805,428)"/>
<path d="M0 0 C1.94268841 2.91403262 3.46395304 5.85808576 5 9 C3.125 8.875 3.125 8.875 1 8 C-0.3125 5.0625 -0.3125 5.0625 -1 2 C-0.67 1.34 -0.34 0.68 0 0 Z " fill="#1B2A44" transform="translate(755,658)"/>
<path d="M0 0 C0.66 0.33 1.32 0.66 2 1 C1.01 2.485 1.01 2.485 0 4 C-0.38499891 5.65549531 -0.72793135 7.3222433 -1 9 C-1.66 9 -2.32 9 -3 9 C-2.25 2.25 -2.25 2.25 0 0 Z " fill="#C9AE3C" transform="translate(933,646)"/>
<path d="M0 0 C0.99 0 1.98 0 3 0 C1.25 3.875 1.25 3.875 -1 5 C-2.99960012 5.039992 -5.00047242 5.04346799 -7 5 C-7 4.67 -7 4.34 -7 4 C-5.35 4 -3.7 4 -2 4 C-2 3.34 -2 2.68 -2 2 C-1.34 2 -0.68 2 0 2 C0 1.34 0 0.68 0 0 Z " fill="#D1B440" transform="translate(909,653)"/>
<path d="M0 0 C0.66 0.33 1.32 0.66 2 1 C1.3125 2.9375 1.3125 2.9375 0 5 C-2.625 5.75 -2.625 5.75 -5 6 C-3.35 4.02 -1.7 2.04 0 0 Z " fill="#C8AA35" transform="translate(664,594)"/>
<path d="M0 0 C1.65 1.65 3.3 3.3 5 5 C1.125 7 1.125 7 0 7 C0 4.69 0 2.38 0 0 Z " fill="#E1BC34" transform="translate(329,560)"/>
<path d="M0 0 C0.66 0.33 1.32 0.66 2 1 C0.625 3.5 0.625 3.5 -1 6 C-1.66 6 -2.32 6 -3 6 C-3 7.65 -3 9.3 -3 11 C-3.33 11 -3.66 11 -4 11 C-4.36630156 7.06225823 -4.30233203 5.43460229 -2 2.125 C-1.34 1.42375 -0.68 0.7225 0 0 Z " fill="#A99D48" transform="translate(511,557)"/>
<path d="M0 0 C0.66 0 1.32 0 2 0 C1.34 2.31 0.68 4.62 0 7 C-1.32 7.33 -2.64 7.66 -4 8 C-2.68 5.36 -1.36 2.72 0 0 Z " fill="#E8BC29" transform="translate(621,501)"/>
<path d="M0 0 C-1 3 -1 3 -3.9375 4.75 C-5.4534375 5.36875 -5.4534375 5.36875 -7 6 C-7.66 5.67 -8.32 5.34 -9 5 C-3.375 0 -3.375 0 0 0 Z " fill="#E6BE30" transform="translate(109,471)"/>
<path d="M0 0 C0.99 0.66 1.98 1.32 3 2 C0.63707344 4.52588702 -0.66462511 5.88820837 -4 7 C-2.79618552 4.50638429 -1.54571278 2.31856917 0 0 Z " fill="#BEA43A" transform="translate(450,446)"/>
<path d="M0 0 C0.33 0 0.66 0 1 0 C1.36923077 5.41538462 1.36923077 5.41538462 -0.5 8.375 C-0.995 8.91125 -1.49 9.4475 -2 10 C-3.39195915 5.82412255 -1.82323219 3.86525224 0 0 Z " fill="#1B2741" transform="translate(357,425)"/>
<path d="M0 0 C2.31 0.66 4.62 1.32 7 2 C7 2.66 7 3.32 7 4 C5.02 4 3.04 4 1 4 C0.67 2.68 0.34 1.36 0 0 Z " fill="#D4B02F" transform="translate(548,657)"/>
<path d="M0 0 C0 0.66 0 1.32 0 2 C-3.08888522 4.05925681 -3.70935927 4.2390374 -7.1875 4.125 C-9.0746875 4.063125 -9.0746875 4.063125 -11 4 C-11 3.67 -11 3.34 -11 3 C-9.54293274 2.49632243 -8.08429904 1.99717444 -6.625 1.5 C-5.81289063 1.2215625 -5.00078125 0.943125 -4.1640625 0.65625 C-2 0 -2 0 0 0 Z " fill="#D5B02C" transform="translate(860,646)"/>
<path d="M0 0 C0.33 0 0.66 0 1 0 C1.66 3.96 2.32 7.92 3 12 C2.01 12 1.02 12 0 12 C0 8.04 0 4.08 0 0 Z " fill="#B9A33E" transform="translate(494,478)"/>
<path d="M0 0 C0.33 0 0.66 0 1 0 C0.75 3.375 0.75 3.375 0 7 C-2.0625 8.4375 -2.0625 8.4375 -4 9 C-2.80100302 5.9168649 -1.52299523 2.93720508 0 0 Z " fill="#18273E" transform="translate(694,481)"/>
<path d="M0 0 C-1.625 1.5625 -1.625 1.5625 -4 3 C-7.25 2.6875 -7.25 2.6875 -10 2 C-3.75 -1.125 -3.75 -1.125 0 0 Z " fill="#19253E" transform="translate(547,484)"/>
<path d="M0 0 C2.475 0.495 2.475 0.495 5 1 C5.33 2.65 5.66 4.3 6 6 C5.34 5.67 4.68 5.34 4 5 C4 4.34 4 3.68 4 3 C2.68 2.67 1.36 2.34 0 2 C0 1.34 0 0.68 0 0 Z " fill="#DCB835" transform="translate(64,474)"/>
<path d="M0 0 C1 2 1 2 0.375 4.0625 C-1 6 -1 6 -3.625 6.75 C-4.800625 6.87375 -4.800625 6.87375 -6 7 C-4.02 4.69 -2.04 2.38 0 0 Z " fill="#BEA840" transform="translate(285,426)"/>
<path d="M0 0 C0.66 0.66 1.32 1.32 2 2 C-2.43076923 5.07692308 -2.43076923 5.07692308 -5.3125 4.6875 C-5.869375 4.460625 -6.42625 4.23375 -7 4 C-4.69 2.68 -2.38 1.36 0 0 Z " fill="#192742" transform="translate(676,655)"/>
<path d="M0 0 C1.04449911 3.13349732 0.93423645 3.98968256 0 7 C-0.66 7 -1.32 7 -2 7 C-2 7.66 -2 8.32 -2 9 C-2.66 9 -3.32 9 -4 9 C-2.80100302 5.9168649 -1.52299523 2.93720508 0 0 Z " fill="#D6B633" transform="translate(587,581)"/>
<path d="M0 0 C0.6875 1.8125 0.6875 1.8125 1 4 C-0.4375 5.75 -0.4375 5.75 -2 7 C-2.99 6.67 -3.98 6.34 -5 6 C-3.35 4.02 -1.7 2.04 0 0 Z " fill="#1C2C42" transform="translate(808,487)"/>
<path d="M0 0 C0.66 0 1.32 0 2 0 C1.67 2.64 1.34 5.28 1 8 C0.34 8 -0.32 8 -1 8 C-0.67 5.36 -0.34 2.72 0 0 Z " fill="#262F40" transform="translate(393,463)"/>
</svg>
